<?xml version="1.0" standalone="no"?>
<!DOCTYPE svg PUBLIC "-//W3C//DTD SVG 1.1//EN" "http://www.w3.org/Graphics/SVG/1.1/DTD/svg11.dtd" >
<svg xmlns="http://www.w3.org/2000/svg">
<metadata>
Created by FontForge 20120731 at Wed Oct  7 10:24:53 2015
 By Ads
</metadata>
<defs>
<font id="iconfont" horiz-adv-x="1024" >
  <font-face 
    font-family="iconfont"
    font-weight="500"
    font-stretch="normal"
    units-per-em="1024"
    panose-1="2 0 6 3 0 0 0 0 0 0"
    ascent="812"
    descent="-212"
    x-height="792"
    bbox="-0.166667 -212 1024.03 812"
    underline-thickness="50"
    underline-position="-100"
    unicode-range="U+0078-E61F"
  />
<missing-glyph horiz-adv-x="374" 
d="M34 0v682h272v-682h-272zM68 34h204v614h-204v-614z" />
    <glyph glyph-name=".notdef" horiz-adv-x="374" 
d="M34 0v682h272v-682h-272zM68 34h204v614h-204v-614z" />
    <glyph glyph-name=".null" horiz-adv-x="0" 
 />
    <glyph glyph-name="nonmarkingreturn" horiz-adv-x="341" 
 />
    <glyph glyph-name="x" unicode="x" horiz-adv-x="1001" 
d="M281 543q-27 -1 -53 -1h-83q-18 0 -36.5 -6t-32.5 -18.5t-23 -32t-9 -45.5v-76h912v41q0 16 -0.5 30t-0.5 18q0 13 -5 29t-17 29.5t-31.5 22.5t-49.5 9h-133v-97h-438v97zM955 310v-52q0 -23 0.5 -52t0.5 -58t-10.5 -47.5t-26 -30t-33 -16t-31.5 -4.5q-14 -1 -29.5 -0.5
t-29.5 0.5h-32l-45 128h-439l-44 -128h-29h-34q-20 0 -45 1q-25 0 -41 9.5t-25.5 23t-13.5 29.5t-4 30v167h911zM163 247q-12 0 -21 -8.5t-9 -21.5t9 -21.5t21 -8.5q13 0 22 8.5t9 21.5t-9 21.5t-22 8.5zM316 123q-8 -26 -14 -48q-5 -19 -10.5 -37t-7.5 -25t-3 -15t1 -14.5
t9.5 -10.5t21.5 -4h37h67h81h80h64h36q23 0 34 12t2 38q-5 13 -9.5 30.5t-9.5 34.5q-5 19 -11 39h-368zM336 498v228q0 11 2.5 23t10 21.5t20.5 15.5t34 6h188q31 0 51.5 -14.5t20.5 -52.5v-227h-327z" />
    <glyph glyph-name="uniE600" unicode="&#xe600;" horiz-adv-x="1000" 
d="M734 753h-437q-23 0 -39 -16t-16 -39v-764q0 -11 4.5 -21t12 -17.5t17.5 -11.5t21 -4h437q22 0 38 16t16 38v764q0 9 -2.5 17.5t-8 15t-12 11.5t-15 8t-16.5 3zM624 -66h-218v55h218v-55zM734 43h-437v655h437v-655z" />
    <glyph glyph-name="uniE601" unicode="&#xe601;" 
d="M512 745q-90 0 -172.5 -35.5t-142 -95t-95 -142t-35.5 -173t35.5 -173t95 -142t142 -95t173 -35.5t173 35.5t142 95t94.5 142t35 173.5q0 72 -22 140t-63.5 123t-96 96t-122.5 63.5t-141 22.5zM512 635q38 0 70.5 -18.5t51.5 -51t19 -70.5q0 -58 -41.5 -99t-99.5 -41
q-38 0 -70 18.5t-51 51t-19 70.5q0 70 56 112q38 28 84 28zM778 65v-43h-532v43q0 54 21 103t57 85t85 57t103 21q111 0 188.5 -78t77.5 -188z" />
    <glyph glyph-name="uniE602" unicode="&#xe602;" 
d="M512 808q-103 0 -197 -40.5t-162.5 -108.5t-108.5 -162t-40 -197.5t40 -197.5t108.5 -162t162.5 -108.5t197.5 -40.5t197.5 40.5t162 108.5t108.5 162t40.5 198q0 82 -26 160t-73 140.5t-109.5 109.5t-140 72.5t-160.5 25.5zM644 300h-84v-305h-114v305h-76v105h76v62
q0 70 26.5 104t97.5 34h84v-106h-52q-15 0 -23.5 -2t-12.5 -8.5t-5 -12.5t-1 -19v-52h95zM644 300z" />
    <glyph glyph-name="uniE603" unicode="&#xe603;" 
d="M886 604h-748q-31 0 -53 -22t-22 -53v-458q0 -31 22 -53t53 -22h748q15 0 29 6t24 16t16 24t6 29v458q0 31 -22 53t-53 22zM868 550l-298 -264q-10 -8 -18.5 -15t-15.5 -11t-13 -6.5t-11 -2.5q-9 0 -23.5 9t-34.5 26l-298 264h712zM119 88v414l233 -205zM158 50l234 207
l38 -34q34 -29 82 -29q24 0 44.5 7.5t37.5 21.5l38 34l234 -207h-708zM905 88l-233 209l233 205v-414zM905 88z" />
    <glyph glyph-name="uniE604" unicode="&#xe604;" 
d="M592 194q-14 5 -26 9q-1 0 -2 1l-5 3q-3 2 -5.5 4t-5 6t-4.5 8.5t-3 10.5t-1 13.5t2 17t5 20.5q44 45 72 111.5t28 133.5q0 69 -28.5 119.5t-74 74.5t-102.5 24q-33 0 -63.5 -9t-56 -27t-44.5 -43.5t-29.5 -61t-10.5 -77.5q0 -68 28 -134t72 -112q6 -16 6.5 -30.5
t-3.5 -23t-10 -15.5t-10.5 -10t-8.5 -4q-62 -23 -116.5 -52t-94.5 -67t-40 -74v-28q0 -120 351 -125q-4 21 1 40l43 147q7 24 26 41zM813 158l-34 34h1l-45 45l-206 -204q-2 -1 -3.5 -3.5t-2.5 -4.5l-43 -147q-3 -10 4 -18q3 -3 6.5 -4.5t6.5 -1.5q2 0 3 0.5t2 0.5l147 43
l9 6l205 204zM549 -93l-18 17l24 79l9 -10l49 -4l3 -47l12 -12zM753 257l129 -128l30 27l-129 129zM945 259l-61 62q-13 13 -31 13t-31 -13l-19 -19l124 -123l19 19q12 13 12 30.5t-13 30.5z" />
    <glyph glyph-name="uniE605" unicode="&#xe605;" 
d="M255 -43v357h39v44h-200v-40h39v-361h122zM32 397h967q18 8 17.5 22t-16.5 25q-22 14 -485 349l-483 -349q-9 -6 -13.5 -12.5t-5 -13t4.5 -12t14 -9.5zM515 628q29 0 49.5 -20.5t20.5 -49.5t-20.5 -49.5t-49.5 -20.5t-49.5 20.5t-20.5 49.5t20.5 49.5t49.5 20.5zM56 -122
h919v39h-919v-39zM16 -202h999v36h-999v-36zM576 -43v359h39v39h-199v-37h39v-361h121zM895 -43v359h39v39h-199v-37h39v-361h121z" />
    <glyph glyph-name="uniE606" unicode="&#xe606;" 
d="M511 -212q-104 0 -198.5 40.5t-163 109t-109 163.5t-40.5 200q0 104 40.5 198.5t109 163t163 109t198.5 40.5q105 0 200 -40.5t163.5 -109t109 -163t40.5 -198.5q0 -84 -26 -162t-73.5 -141t-110.5 -110.5t-141 -73.5t-162 -26zM368 406h-99v-320h99v320zM377 501
q0 24 -16.5 40t-42.5 16q-8 0 -15 -1t-13 -4t-11.5 -6.5t-9.5 -8.5t-7 -10.5t-4.5 -12t-1.5 -13.5q0 -15 7.5 -27.5t21 -20.5t31.5 -8q19 0 33 7.5t21 20t7 28.5zM768 263q0 71 -35.5 107.5t-91.5 36.5q-39 0 -66 -16.5t-33 -35.5v51h-112v-320h112v173q0 20 2 26
q14 39 54 39q28 0 42 -19t14 -53v-166h114v177z" />
    <glyph glyph-name="uniE607" unicode="&#xe607;" 
d="M109 758q-6 0 -11.5 -0.5t-10.5 -2t-9.5 -4t-8 -5t-6 -6t-3.5 -7t-1 -7.5v-843q0 -13 14.5 -22.5t35 -9.5t35.5 9.5t15 22.5v843q0 14 -15 23t-35 9zM414 145h-177q-5 0 -9.5 -2.5t-7 -7t-2.5 -9.5v-127q0 -5 2.5 -9.5t7 -7t9.5 -2.5h220q-21 32 -32.5 70t-11.5 78
q0 9 1 17zM237 224h193q22 58 66 101.5t102 64.5h-361q-8 0 -13.5 -5.5t-5.5 -13.5v-127q0 -8 5.5 -14t13.5 -6zM237 469h570q6 0 10.5 2.5t7 7t2.5 9.5v127q0 8 -6 14t-14 6h-570q-4 0 -7.5 -1.5t-6 -4.5t-4 -6.5t-1.5 -7.5v-127q0 -8 5.5 -13.5t13.5 -5.5zM956 75v60
l-72 12q-6 26 -20 48l42 60l-43 43l-59 -43q-23 14 -48 20l-13 72h-60l-12 -71q-26 -7 -48 -20l-59 42l-43 -43l41 -59l-8 -16q-4 -8 -7 -16t-5 -17l-71 -12v-60l71 -13q3 -13 8 -25t12 -24l-42 -58l43 -43l59 41q23 -13 49 -20l12 -71h60l13 72q9 2 17 5t16 6.5t15 8.5
l60 -42l43 43l-43 59q2 3 3.5 5.5t2.5 5.5l4 6l2 6l2 6l2 6q1 3 2 6.5t2 6.5zM714 20q-23 0 -42.5 11t-31 30.5t-11.5 42.5t11.5 42.5t31 31t42.5 11.5q35 0 59.5 -24.5t24.5 -60t-24.5 -60t-59.5 -24.5zM714 20z" />
    <glyph glyph-name="uniE608" unicode="&#xe608;" 
d="M512 735q-61 0 -119 -16t-107 -44.5t-90 -70t-70 -90.5t-45 -107t-16 -119q0 -91 35.5 -173.5t95.5 -142.5t142.5 -95.5t173.5 -35.5t173.5 35.5t142.5 95.5t95.5 142.5t35.5 173.5t-35.5 174t-95.5 142.5t-142.5 95t-173.5 35.5zM713 99l-3 -3q-2 -3 -5 -6t-9 -8.5
t-12.5 -10t-15.5 -10.5t-19 -11q-15 -5 -31 -5q-18 0 -40 6q-70 20 -140 83q-88 80 -129 175q-24 57 -20 103q4 38 31 60q6 6 17.5 16t15.5 13q20 18 45 18q28 0 49 -22q9 -10 22 -24q19 -22 17.5 -49.5t-23.5 -46.5l-7 -7l-8 -8q-3 -3 -7.5 -6.5t-8.5 -6.5q-11 -9 -8 -24
q3 -23 20 -49q32 -50 76 -76q9 -5 27 -11l7 -2q8 0 15 7q9 8 31 28q4 4 8.5 7t9.5 5t9.5 3.5t9.5 2t9 0.5q29 0 51 -23q4 -4 7 -8l8 -8l6 -8q12 -14 16 -31t-1.5 -33.5t-19.5 -29.5zM683 204q-16 18 -37 18q-8 0 -17 -3.5t-17 -10.5l-3 -3q-6 -5 -9.5 -8t-8.5 -8l-9 -9
q-12 -11 -28 -11q-6 0 -13 2l-7 3l-7.5 2.5t-8.5 3.5l-8 4q-47 29 -81 82q-19 29 -24 56q-2 13 2 23.5t13 17.5q8 6 24 21q5 4 7 6q10 10 14.5 22.5t1.5 25t-12 23.5q-13 14 -21 23q-16 17 -36 17q-18 0 -33 -14q-3 -2 -6 -4.5t-7 -6.5q-13 -12 -20 -18t-12 -13t-8 -15.5
t-4 -18.5q-2 -22 2.5 -44.5t15.5 -49.5q40 -92 125 -169q66 -60 132 -79q10 -3 18.5 -4t16.5 -1h8q4 0 8 1t7 2q34 17 57 43l2 2q16 15 17 34t-13 35q-9 10 -21 23z" />
    <glyph glyph-name="uniE609" unicode="&#xe609;" 
d="M61 812l82 -922l368 -102l370 103l82 921h-902zM785 511h-433l10 -116h412l-31 -347l-232 -64l-231 64l-16 177h114l8 -90l125 -34h1l126 34l13 147h-392l-30 342h566z" />
    <glyph glyph-name="uniE60A" unicode="&#xe60a;" 
d="M775 264h-318q-20 0 -33.5 13.5t-13.5 33t13.5 33.5t33.5 14h318q19 0 33 -14t14 -33q0 -6 -1 -11t-3.5 -10t-6 -9t-7.5 -7t-8.5 -5.5t-10 -3.5t-10.5 -1zM775 78h-318q-20 0 -33.5 13.5t-13.5 33t13.5 33.5t33.5 14h318q19 0 33 -14t14 -33.5t-14 -33t-33 -13.5z
M991 -76v595q0 20 -7 34t-16.5 20t-19 9t-16.5 2h-7h-30h-70h-95h-88h-70q-24 0 -19 0q-4 0 -8.5 0.5t-7.5 1.5l-6 2l-5 3q-2 1 -3.5 2t-2.5 2v1l-44 69q-13 20 -29 29.5t-25 8.5h-10h-289q-16 0 -29.5 -4.5t-21.5 -11.5t-14.5 -15t-9 -16t-4.5 -15t-2 -11v-5v-697
q0 -24 6.5 -40.5t16.5 -23t19.5 -10t15.5 -2.5l7 1h824q20 0 33 7t18.5 17.5t7.5 21t2 18.5zM932 -41q0 -13 -6.5 -24t-17.5 -17.5t-24 -6.5h-735q-20 0 -34 14t-14 34v498q0 20 14 34t34 14h735q20 0 34 -14t14 -34v-498zM232 311q0 -5 1 -10t3 -9.5t4.5 -8.5t6 -7.5
t7.5 -6.5t8.5 -4.5t9.5 -2.5t10 -1q6 0 11.5 1t10.5 3.5t9.5 6t8 8t6 9.5t3.5 10.5t1 11.5q0 13 -6.5 25t-18 18.5t-25 6.5t-25.5 -6.5t-18.5 -18.5t-6.5 -25zM232 125q0 -14 6.5 -25.5t18.5 -18t25 -6.5q21 0 35.5 14.5t14.5 35.5q0 13 -6.5 25t-18 18.5t-25.5 6.5
q-21 0 -35.5 -14.5t-14.5 -35.5z" />
    <glyph glyph-name="uniE60B" unicode="&#xe60b;" 
d="M671 283q18 0 21 16q1 3 0.5 6t-1.5 5.5t-3 4.5t-4.5 3.5t-6 2t-6.5 0.5q-68 1 -139 1h-159h-156q-14 0 -20 -10q-5 -11 1 -20t19 -9h226h95h133zM215 402q-4 0 -8 -1.5t-6.5 -4t-4 -6t-1.5 -7.5q0 -5 2.5 -9.5t7 -7t9.5 -2.5q1 -1 7 -1h227h110h111q10 0 15.5 4t7 10
t-0.5 12q0 3 -2 5.5t-4.5 4t-5.5 2.5t-7 1h-38h-38h-38h-38h-38h-38h-46h-46h-45h-47h-45zM522 482h-151q-10 0 -15.5 -5t-5.5 -13.5t5.5 -14t15.5 -5.5h300q9 0 15.5 5.5t6.5 14t-6.5 14t-16.5 5.5h-148v-1zM501 218q0 19 -23 20h-130h-32h-34h-32h-34q-9 0 -15 -6t-6 -14
q0 -6 3 -10t8 -6.5t11 -2.5h261q11 0 17 5t6 14zM685 145q-19 1 -40 -3q-35 -7 -116 -39q-6 -3 -5 -9q0 -4 2 -6.5t5 -3t7 0.5q8 5 37 16q72 29 129 27q10 -1 20.5 -0.5t19.5 2.5q16 3 44.5 9t37.5 7q6 2 4 9q-2 8 -3.5 9t-9.5 -1q-1 0 -3 -0.5t-3.5 -1t-3.5 -0.5
q-75 -17 -122 -16zM671 524q5 0 9 1.5t6.5 4t4.5 6.5t2 8q0 5 -3 9.5t-7.5 7t-11.5 2.5h-17h-20h-18h-13h-14h-13h-15q-22 0 -22 -19t22 -19q51 -1 110 -1zM935 117q-1 6 -4 11t-7 8.5t-10 6t-13 2.5q-38 -9 -47 -11q-3 0 -3 -4q7 -30 12 -53q0 -3 1 -3.5t3 -0.5q2 1 20 4.5
t27 6.5q10 3 16 12.5t5 20.5zM271 -28q6 -1 27.5 -4t35 -5.5t27.5 -4.5q4 0 5 1t0 5q-2 11 -4.5 22t-6.5 28.5t-5 22.5q-70 -44 -83 -53q-3 -1 -3.5 -3t-0.5 -4q1 -4 8 -5zM312 138q0 8 -5.5 13.5t-14.5 5.5h-38h-10h-9h-9h-10q-21 0 -21 -19q0 -3 0.5 -5.5t2 -4.5t3.5 -4
t4 -3t5 -1.5t6 -0.5q42 -1 76 0q9 0 14.5 5.5t5.5 13.5zM388 -38q6 3 6 4l-1 4q-1 4 -6 27t-7 35q-2 9 -4 10t-11 -1q-6 -2 -5 -8q2 -9 4.5 -19.5t5 -23t4.5 -20.5q1 -8 3 -9t11 1zM787 31q-19 -5 -25 -5q-7 -2 -7 -10v-60v-61q0 -8 -8 -8q-298 1 -613 0q-7 0 -7 8v617
q0 6 1.5 7.5t6.5 1.5h150q8 0 12.5 1.5t6.5 6t2 13.5v48v62q0 24 -1 48q0 6 2.5 8t8.5 2h215h215q5 0 7 -1.5t2 -7.5v-448v-80q0 -9 8 -6q4 1 9 2t9 2q13 0 13 14v452v15v16v14v16q0 6 -0.5 14t-0.5 16q0 3 -0.5 6t-1.5 5t-3 3.5t-5 2t-7 0.5h-3h-4h-3h-467h-2q-3 -1 -5 0
q-9 5 -20 -6q-1 -1 -1 -2q-14 -14 -34 -35.5t-35 -37.5t-33 -35t-35.5 -37.5t-33.5 -35.5q-12 -13 -12 -30v-646q0 -15 6.5 -21t21.5 -6h328h329q5 0 9 1t6.5 3t3.5 5.5t1 7.5q1 28 1 80v76q0 6 -7 5zM267 675v-110q0 -6 -7 -5h-100q22 23 107 115zM849 67q-11 50 -13 60
l-2 6q0 2 -1 4t-3 2t-3.5 -0.5t-6.5 -1.5q-20 -4 -82.5 -17.5t-91.5 -19.5t-79 -16.5t-91 -19t-82 -17.5q-8 -2 -6 -10q3 -13 4.5 -21.5t4 -20t4.5 -20.5q4 -9 11 -8q59 13 327 69q16 4 33 7.5t39.5 8.5t32.5 7h1q5 1 4 6v2zM817 111q-104 -22 -122 -25q-25 -6 -68.5 -15
t-72.5 -15.5t-67.5 -14.5t-71.5 -15h-3l-1 -1q-3 0 -3.5 1t-1 3.5t0.5 3.5t3 2q15 3 41.5 8.5t30.5 6.5q130 27 303 64q30 6 31 7q5 1 6 -4q1 -4 -5 -6z" />
    <glyph glyph-name="uniE60C" unicode="&#xe60c;" 
d="M912 812h-801q-22 0 -42.5 -9t-35.5 -24t-24 -35.5t-9 -42.5v-802q0 -46 32.5 -78.5t78.5 -32.5h801q47 0 79.5 32.5t32.5 78.5v802q0 46 -32.5 78.5t-79.5 32.5zM959 -101q0 -5 -1.5 -10t-3.5 -9.5t-5.5 -8.5t-7.5 -7.5t-8.5 -5.5t-9.5 -3.5t-11 -1.5h-801
q-19 0 -32.5 13.5t-13.5 32.5v802q0 19 13.5 32.5t32.5 13.5h801q10 0 18.5 -4t14.5 -10t10 -14.5t4 -17.5v-802zM316 587q-7 0 -13 3t-10 7t-7 10t-3 13q0 13 9.5 22.5t23.5 9.5h508q5 0 9 -1t7.5 -3t6.5 -5t5 -6.5t3.5 -8t1.5 -8.5q0 -9 -4.5 -16.5t-12 -12t-16.5 -4.5
h-508zM316 427q-14 0 -23.5 9.5t-9.5 23.5q0 6 3 12t7 10.5t10 7t13 2.5h508q9 0 16.5 -4t12 -11.5t4.5 -16.5q0 -5 -2 -10t-5 -9t-6.5 -7t-8.5 -5t-11 -2h-508zM316 268q-14 0 -23.5 9.5t-9.5 22.5q0 9 4.5 16.5t12 11.5t16.5 4h508q9 0 16.5 -4t12 -11.5t4.5 -16.5
q0 -7 -2.5 -13t-7 -10t-10.5 -6.5t-13 -2.5h-508zM316 108q-14 0 -23.5 9.5t-9.5 22.5q0 9 4.5 16.5t12 12t16.5 4.5h508q9 0 16.5 -4.5t12 -12t4.5 -16.5t-4.5 -16.5t-12 -11.5t-16.5 -4h-508zM316 -52q-14 0 -23.5 9.5t-9.5 23t9.5 23t23.5 9.5h508q9 0 16.5 -4.5t12 -12
t4.5 -16.5q0 -13 -9.5 -22.5t-23.5 -9.5h-508zM200 620zM167 620q0 13 9.5 22.5t23.5 9.5q8 0 15.5 -4.5t12 -11.5t4.5 -16q0 -14 -9.5 -23.5t-22.5 -9.5q-9 0 -16.5 4.5t-12 12t-4.5 16.5zM200 460zM167 460q0 13 9.5 22.5t23.5 9.5q4 0 8 -1t7.5 -3t6.5 -5t5 -6.5t3.5 -8
t1.5 -8.5q0 -13 -9.5 -22.5t-22.5 -9.5q-9 0 -16.5 4t-12 11.5t-4.5 16.5zM200 300zM167 300q0 13 9.5 22.5t23.5 9.5q4 0 8 -1t7.5 -3t6.5 -5t5 -6.5t3.5 -8t1.5 -8.5q0 -13 -9.5 -22.5t-22.5 -9.5q-9 0 -16.5 4t-12 11.5t-4.5 16.5zM200 140zM167 140q0 13 9.5 22.5
t23.5 9.5q4 0 8 -1t7.5 -3t6.5 -5t5 -6.5t3.5 -7.5t1.5 -9q0 -13 -9.5 -22.5t-22.5 -9.5q-9 0 -16.5 4.5t-12 11.5t-4.5 16zM200 -20zM167 -19.5q0 13.5 9.5 23t23.5 9.5q4 0 8 -1.5t7.5 -3.5t6.5 -5t5 -6.5t3.5 -7.5t1.5 -9q0 -9 -4.5 -16t-12 -11.5t-15.5 -4.5
q-14 0 -23.5 9.5t-9.5 23z" />
    <glyph glyph-name="uniE60D" unicode="&#xe60d;" 
d="M964 519q-45 27 -95 43v109q0 6 -2.5 10t-7 7t-9.5 3h-209q-5 0 -9.5 -3t-7 -7t-2.5 -10v-102q-63 -17 -112 -46q-104 58 -217 58q-38 0 -75.5 -7t-63 -15.5t-49.5 -19.5t-32 -15.5t-13 -8.5q-2 -1 -3.5 -3t-2.5 -4t-1.5 -4t-0.5 -5v-594q0 -10 7.5 -15.5t16.5 -3.5
q125 31 252 31q111 0 177 -30q4 -1 8 -1q3 0 5.5 0.5t4.5 2.5q1 0 1.5 0.5t0.5 1.5q128 28 245 28q110 0 177 -29q3 -2 7 -2l11 3q3 2 5 4.5t3 5.5t1 6v595q0 11 -10 17zM407 108h-230q-8 0 -13.5 5.5t-5.5 13.5t5.5 14t13.5 6h230q5 0 9.5 -3t7 -7t2.5 -9.5t-2.5 -10t-7 -7
t-9.5 -2.5zM407 221h-230q-5 0 -9.5 2.5t-7 7t-2.5 9.5q0 8 5.5 13.5t13.5 5.5h230q5 0 9.5 -2.5t7 -7t2.5 -9.5q0 -8 -5.5 -13.5t-13.5 -5.5zM407 327h-230q-8 0 -13.5 5.5t-5.5 13.5t5.5 14t13.5 6h230q4 0 7.5 -2t6 -4.5t4 -6t1.5 -7.5q0 -8 -5.5 -13.5t-13.5 -5.5z
M830 214l-72 66q-6 5 -13 5t-13 -5l-72 -66v438h170v-438z" />
    <glyph glyph-name="uniE60E" unicode="&#xe60e;" 
d="M90 -58l334 -132l47 83l-256 186zM941 296q11 -50 10.5 -111t-3.5 -83.5t-6 -36.5l36 -8v1q1 6 2 13.5t4 27t4 41.5t1 48.5t-3 57t-9 58.5q-5 22 -11.5 42t-16 42t-23 41t-30 37.5t-38 33.5t-46.5 26.5t-56.5 19t-67.5 9.5q-4 -10 -8.5 -19t-9.5 -18q224 -4 271 -222z
M82 65q-22 121 1 231q47 218 271 222q-11 18 -18 37q-56 -3 -102.5 -20t-77 -41t-53.5 -57.5t-35.5 -65t-20.5 -67.5q-11 -54 -11 -118t3.5 -88t6.5 -41zM934 -58l-125 137l-256 -186l47 -83zM512 467q62 0 105.5 44t43.5 106t-43.5 105.5t-105.5 43.5t-106 -43.5
t-44 -105.5q0 -12 2 -24t6 -23t9.5 -21.5t12 -20t15 -17.5t17.5 -14.5t19.5 -12t21.5 -9.5t23 -6t24 -2zM569 63l-34 282l26 72h-99l26 -72l-35 -282l58 -59zM356 192l-36 -11l51 -162l50 -37z" />
    <glyph glyph-name="uniE60F" unicode="&#xe60f;" 
d="M825 252q71 74 71 176v128q0 106 -75 181t-181 75q-14 0 -28.5 -2t-28.5 -5q66 -53 97 -128q39 -13 63.5 -46t24.5 -75v-128q0 -21 -6.5 -40.5t-18.5 -35t-28 -27.5t-35 -18q-4 -10 -9 -20t-10 -19q72 -57 118 -136q92 -56 117 -152q0 -27 -18.5 -45.5t-45.5 -18.5h-9
q-7 -25 -18 -48t-26.5 -43t-34.5 -37h88q79 0 135.5 56.5t56.5 135.5q-14 86 -68 157.5t-131 114.5zM569 252q71 74 71 176v128q0 106 -75 181t-181 75t-181 -75t-75 -181v-128q0 -102 71 -176q-77 -43 -131 -114.5t-68 -157.5q0 -79 56 -135.5t136 -56.5h384
q79 0 135.5 56.5t56.5 135.5q-14 86 -68 157.5t-131 114.5zM256 556q0 53 37.5 90.5t90.5 37.5t90.5 -37.5t37.5 -90.5v-128q0 -53 -37.5 -90.5t-90.5 -37.5t-90.5 37.5t-37.5 90.5v128zM576 -84h-384q-27 0 -45.5 18.5t-18.5 45.5q21 83 94 137.5t162 54.5t162 -54.5
t94 -137.5q0 -27 -18.5 -45.5t-45.5 -18.5z" />
    <glyph glyph-name="uniE610" unicode="&#xe610;" 
d="M792 582v112h-560v-112h-169v-56v-56q0 -70 49.5 -119.5t119.5 -49.5q5 0 10 0.5t10.5 1t10.5 1.5t9.5 2.5t9.5 2.5q65 -92 174 -114v-174h-56q-47 0 -79.5 -33t-32.5 -79h448q0 30 -15 56t-40.5 41t-56.5 15h-56v174q53 11 98 40.5t76 73.5q24 -8 50 -8q70 0 119.5 49.5
t49.5 119.5v56v56h-169zM232 368q-28 0 -51.5 13.5t-37 37t-13.5 51.5v56h102v-56v-16q0 -7 1 -14.5t2 -14.5t2.5 -14t3.5 -14l4 -14q2 -7 5 -13q-9 -2 -18 -2zM894 470q0 -42 -30 -72t-72 -30h-6q-3 0 -6 0.5t-6 1.5q6 15 10 31.5t6 33.5t2 35v56h102v-56z" />
    <glyph glyph-name="uniE611" unicode="&#xe611;" 
d="M1 287q0 -165 95.5 -297.5t246.5 -185.5q5 -1 9 -1t6.5 0.5t4 2.5t2.5 3.5t1 4.5v6v4v6v88q-129 -15 -163 80q-8 21 -9 22q-8 14 -26 27t-27 20.5t-2 14.5q50 26 113 -66q13 -21 37.5 -29t43 -7t37.5 6q10 40 40 70q-115 20 -171.5 85t-56.5 158q0 87 56 150q-7 19 -9 40
t-1 35t5.5 30.5t5.5 20t4 11.5q30 3 66 -10.5t50 -23t25 -18.5q28 8 60.5 12t68.5 4q70 0 129 -16q13 10 28.5 19.5t49 21.5t60.5 9q1 0 1 -1q27 -69 6 -133q56 -64 56 -151q0 -93 -56.5 -158t-172.5 -86q44 -42 44 -104v-128v-3t0.5 -5t1.5 -5t2.5 -4t5 -2t7.5 -1
q75 25 139.5 72.5t110.5 110t72 140.5t26 161q0 69 -18.5 135t-51.5 122t-80 103.5t-103 80.5t-122.5 51t-135.5 18q-104 0 -198.5 -40t-163 -108.5t-109 -163t-40.5 -198.5z" />
    <glyph glyph-name="uniE612" unicode="&#xe612;" 
d="M600 450q25 31 39 74q4 14 7 28.5t4.5 30t1.5 32.5q13 -5 22.5 -9.5t16.5 -9t11 -8.5q12 -13 12 -36q0 -20 -5 -39.5t-14 -38.5q-19 -38 -40 -38q-4 0 -9 1t-12 3q-2 0 -4.5 1t-5.5 1.5t-5.5 1.5t-5.5 2t-6.5 2t-6.5 2zM213 21q-59 75 -84 140q-26 65 -26 139
q0 81 31 156t89 133q29 29 62 51t71 38q18 8 37.5 13.5t39 9.5t39 6t40.5 2q27 0 53.5 -3.5t52 -10.5t50.5 -17q73 -30 132 -89q58 -58 89 -132q8 -19 13.5 -38t9.5 -38.5t6 -39.5t2 -40q0 -81 -31 -156q-11 -25 -24 -48.5t-29.5 -44.5t-35.5 -40q-58 -58 -133 -89t-155 -31
q-99 0 -158 31q-59 32 -59 83q0 6 1 11t3 11l3 5q1 3 2.5 5.5t3.5 5.5l4 6q5 -4 9 -7t8 -5q6 -4 12 -4q9 0 28 15q19 16 37 40q7 10 13.5 21.5t12.5 24.5q10 26 10 33q0 4 -12 20q-7 7 -10 14.5t-3 15.5q0 7 1.5 15.5t4 18t6.5 20.5q12 36 34 81q26 53 42 74q17 21 34 27
q4 2 13 3q29 3 44 25q13 23 23 58q10 36 10 60q0 10 -1.5 17t-4.5 10q-6 7 -26 7q-31 0 -54 -4q-11 -3 -19.5 -6t-13.5 -7t-11.5 -10.5t-15 -16t-18.5 -23.5q-8 -9 -15.5 -19.5t-15.5 -21.5l-16 -24q-8 -11 -16 -24q-59 -92 -96 -195q-38 -104 -38 -156q0 -10 5 -21
q2 -6 6 -13.5t10 -16.5q-16 -20 -23.5 -39t-7.5 -38q0 -65 69.5 -106t184.5 -41q43 0 86 8.5t84 25.5q83 34 146 97q32 32 56.5 68.5t41.5 77.5q34 83 34 172q0 44 -8.5 86.5t-25.5 83.5q-11 27 -25.5 52.5t-32.5 48.5t-40 45q-31 32 -67.5 56t-77.5 41q-82 34 -171 34
q-90 0 -171.5 -34t-145.5 -97q-63 -63 -97 -146q-34 -82 -34 -171q0 -77 24 -143q23 -67 69 -118q2 -2 3 -3.5t2.5 -3t3 -2.5t2.5 -2l2 -2l4 -2l2 -2q9 -6 17 -6q2 0 8 1q2 1 12 4zM364 19q37 27 63 63q24 35 35 78q27 -18 36 -28q5 -6 7 -11.5t2 -11.5q0 -31 -31 -72
q-16 -21 -30.5 -31t-28.5 -10q-8 0 -22 6t-31 17z" />
    <glyph glyph-name="uniE613" unicode="&#xe613;" 
d="M580 451q-1 3 -1.5 7t-0.5 7l-2 6q0 3 -1 5v1h88l152 301q5 12 -2 23q-4 5 -9.5 8t-11.5 3h-99h-98h-67h-32h-67h-98h-99q-13 0 -21 -11q-1 -3 -2 -5.5t-1.5 -5.5t0 -6t1.5 -6l149 -301h88v-1v-2l-2 -4v-4l-2 -6q0 -2 -0.5 -5t-0.5 -5q-75 -17 -135 -63.5t-94.5 -115.5
t-34.5 -148q0 -91 45 -168t122 -122t168 -45q68 0 130 26.5t107 71.5t71.5 107t26.5 130q0 59 -20.5 114.5t-56 98.5t-84.5 73t-106 42zM512 -153q-114 0 -195 81t-81 195q0 28 6 55.5t16 52t25.5 46.5t34 40.5t40.5 34t46.5 25.5t52 16t55.5 6q56 0 107 -22t88 -59t59 -88
t22 -107t-22 -107t-59 -88t-88 -59t-107 -22zM512 123zM276 123v3q0 98 69 167t167 69t167 -69t69 -167v-3v-3q0 -98 -69 -167.5t-167 -69.5t-167 69.5t-69 167.5v1v2z" />
    <glyph glyph-name="uniE614" unicode="&#xe614;" 
d="M304 308h-2t-3 -1q3 1 5 1zM840 95v3v-3zM875 489v1v-1zM840 489v1v-1zM861 -47q-4 28 -12 55t-21 52l-10 20q-24 41 -58 74q-7 7 -15 14q-56 49 -126 72q12 7 24 15q13 10 25 22q64 64 64 155q-60 -10 -117 -14t-92.5 -5t-88 3.5t-69.5 6.5t-71 9q0 -29 7.5 -57t22 -53
t35.5 -45l8 -8q4 -4 8 -7.5t9 -6.5q11 -8 24 -15q-70 -23 -127 -72q-7 -7 -15 -14q-34 -33 -58 -74l-10 -20q-25 -51 -33 -107q-1 -9 4.5 -16.5t14.5 -8.5h3h3q14 3 17 18q15 104 90 181q43 43 99 67.5t117 25.5h1q15 0 30.5 -2t30 -5t29 -8t28 -11t26.5 -13t25.5 -15.5
t24 -18.5t21.5 -20q76 -77 91 -181q2 -15 17 -18h1h1h3q9 1 14.5 8.5t4.5 16.5zM513 256h-2q-61 1 -110 39t-64 95q-1 2 -1 3q-1 5 -1 30q187 -37 360 3q0 -14 -5 -33v-1v-2q-6 -22 -18 -42.5t-29 -37t-37 -28.5t-43.5 -18.5t-47.5 -7.5h-2zM875 649l-362 121l-364 -121
l364 -122l285 96v-142h29v152zM513 558l-271 91l271 90l270 -90zM706 453q-32 -14 -67 -22.5t-72 -11.5q-21 -2 -42.5 -2t-43 1.5t-43.5 4.5q-66 10 -118 30v93h-30v-112l9 -4q7 -3 18.5 -7.5t45.5 -14t69 -14.5q45 -7 88 -7q6 0 12.5 0.5t12.5 0.5t12 0.5t12 0.5
q84 8 158 41l9 4v112h-30v-93z" />
    <glyph glyph-name="uniE615" unicode="&#xe615;" 
d="M233 246v-145l35 -32q124 -103 260 -103q170 0 268 102q18 19 27 33v157l-255 -149q-29 -17 -60 -2zM534 418q-16 0 -31 2t-28 7t-22 11l-306 -106l364 -182q30 -15 59 2l423 247q32 19 31 56t-34 54l-439 219q-30 15 -59 -2l-423 -247q-32 -18 -31 -55.5t34 -53.5
l-1 -224q-8 -3 -15 -8.5t-12 -12t-7.5 -15t-2.5 -17.5q0 -28 22 -45q-6 -41 -36 -69q-22 -20 -20 -49.5t26 -46.5l8 -6q23 -16 50 -10q13 3 23.5 11t16.5 19q34 61 6 156q16 16 16 40q0 9 -2.5 17.5t-7.5 15t-12 12t-15 8.5l1 214l332 115q2 6 6 12.5t8 10.5l4 4
q-1 -2 -0.5 -7t4.5 -12.5t11 -14.5t21.5 -12t34.5 -5q32 0 52.5 10.5t20.5 29.5q0 3 -1 7l-2 8q18 -22 18 -43q0 -14 -11.5 -24.5t-30.5 -15.5t-43 -5z" />
    <glyph glyph-name="uniE616" unicode="&#xe616;" 
d="M64 746h65v-895h-65v895zM576 491v129q-87 -21 -129 -28v-129q12 2 26 5t25 5t27 6t25 6t26 6zM704 773q-43 -7 -128 -27v-126q85 20 128 27v126zM447 718q-70 -11 -126 -6v-126q56 -5 126 6v126zM192 620v-129q31 -15 63.5 -23.5t65.5 -10.5v129q-69 5 -129 34zM959 363
v128q-59 28 -126 34v-128q68 -6 126 -34zM704 261q34 6 64.5 7.5t64.5 -0.5v129q-7 0 -14.5 0.5t-14.5 0.5h-14h-14q-7 0 -14.5 -0.5t-14.5 -1.5t-14.5 -2t-14.5 -2l-14 -2v-129zM447 206q43 7 129 28v129q-87 -21 -129 -28v-129zM192 234q21 -10 43 -17.5t43 -11.5t43 -5
v129q-69 5 -129 34v-129zM704 647v-129q34 6 64.5 7.5t64.5 -0.5v129q-16 1 -32 1t-32.5 -0.5t-32 -2.5t-32.5 -5zM959 746q-59 28 -126 34v-126q67 -6 126 -34v126zM576 491v-128q28 7 44 10.5t40 8.5t44 8v128q-43 -7 -128 -27zM321 457v-128q34 -2 63 -0.5t63 6.5v128
q-70 -11 -126 -6z" />
    <glyph glyph-name="uniE617" unicode="&#xe617;" 
d="M678 729q-13 0 -22.5 -9.5t-9.5 -22.5v-789q0 -14 9.5 -23t22.5 -9q9 0 16.5 4t11.5 11.5t4 16.5v789q0 4 -0.5 7.5t-2.5 6.5l-4 6q-2 3 -4.5 5t-6 3.5t-7 2.5t-7.5 1zM765 711q-3 0 -6.5 -2t-5.5 -5.5t-2 -6.5v-789q2 -13 14 -14q3 0 6 1t4.5 3t3 4.5t1.5 5.5v789
q0 2 -1.5 5t-3 4.5t-4.5 3t-6 1.5zM840 711q-4 0 -7 -2t-5 -5.5t-2 -6.5v-789q2 -13 14 -14q6 0 10 4t4 10v789q0 5 -4 9.5t-10 4.5zM925 729q-13 0 -22.5 -9.5t-9.5 -22.5v-789q0 -14 9.5 -23t22.5 -9q9 0 16.5 4t12 11.5t4.5 16.5v789q0 6 -3 12t-7 10.5t-10 7t-13 2.5z
M529 728h-120q-23 0 -40 -16.5t-17 -40.5v-736q0 -15 7.5 -28.5t20.5 -21t29 -7.5h120q23 0 40 17t17 40v736q0 15 -7.5 28.5t-20.5 21t-29 7.5zM518 453h-97q-9 0 -14.5 6t-5.5 14q0 4 1.5 8t4 6.5t6.5 4t8 1.5h97q5 0 9.5 -2.5t7.5 -7.5t3 -10t-3 -10t-7.5 -7.5t-9.5 -2.5
zM518 539h-97q-9 0 -14.5 5.5t-5.5 14t5.5 14.5t14.5 6h97q8 0 14 -6t6 -14.5t-6 -14t-14 -5.5zM239 728h-120q-24 0 -40.5 -16.5t-16.5 -40.5l-1 -736q0 -23 17 -40t41 -17h119q10 0 18.5 3t15.5 8t12.5 12t8.5 16t3 18v736q0 23 -17 40t-40 17zM227 453h-97q-5 0 -9.5 2.5
t-7.5 7.5t-3 10q0 8 6 14t14 6h97q9 0 14.5 -6t5.5 -14q0 -5 -2.5 -10t-7 -7.5t-10.5 -2.5zM227 539h-97q-5 0 -9.5 2.5t-7.5 7t-3 10t3 10t7.5 7.5t9.5 3h97q9 0 14.5 -6t5.5 -14.5t-5.5 -14t-14.5 -5.5z" />
    <glyph glyph-name="uniE618" unicode="&#xe618;" 
d="M988 248l-475 472l-478 -472v-51h69h61v-201v-95v-2q0 -6 1 -11t3.5 -9.5t5.5 -8.5t7 -7.5t8.5 -5.5t10 -3.5t10.5 -1.5h49h17h49q19 0 32.5 13.5t13.5 33.5v2v86v9v48v84v8h45h16h156h23h38v-31v-61v-48v-32v-59v-6q0 -20 13.5 -33.5t32.5 -13.5h49h17h49
q19 0 32.5 13.5t13.5 33.5v7v58v32v109v92h61h70v51zM852 248h-46v-46v-5v-92v-109v-32v-58v-2h-44h-17h-44v2v58v32v48v61v32v5q0 9 -3.5 17.5t-9.5 14.5t-15 10t-18 4h-43h-23h-156h-16h-50q-12 0 -23 -6.5t-17 -17t-6 -22.5v-6v-8v-84v-48v-9v-83h-44h-17h-44v83h1v141
h-1v69v5v46h-46h-56l399 400l399 -400h-60z" />
    <glyph glyph-name="uniE619" unicode="&#xe619;" 
d="M787 281l-7 7q-4 4 -18.5 15t-30 21.5t-39.5 23.5t-48 22t-55 15.5t-62 6.5q-41 0 -86.5 -11.5t-81 -28t-64.5 -32.5t-45 -27l-16 -12l-82 34v-99q10 -3 16.5 -11.5t6.5 -18.5q0 -7 -3 -13.5t-8 -10.5t-12 -6l24 -107h-71l24 107q-20 8 -20 30q0 21 20 29v110l-119 49
l523 232l480 -235zM520.5 336q42.5 0 82.5 -8.5t66.5 -20t47.5 -23t30 -19.5l10 -9v-192q-4 -2 -11 -6t-30.5 -15t-50 -19t-69 -14.5t-87.5 -6.5t-84 6t-63 15.5t-41 18.5t-24 15l-7 6v192q3 4 9.5 9t28 19t46.5 24.5t64.5 19t82 8.5zM518 38q79 0 134.5 14t55.5 33
t-55.5 33t-134.5 14t-134.5 -14t-55.5 -33q0 -8 9.5 -15t27 -13t41 -10t52.5 -6.5t60 -2.5z" />
    <glyph glyph-name="uniE61A" unicode="&#xe61a;" 
d="M771 -88h-510q-57 0 -97.5 40.5t-40.5 97.5v509q0 57 40.5 97.5t97.5 40.5h510q57 0 97 -40.5t40 -97.5v-509q0 -57 -40 -97.5t-97 -40.5zM261 677q-24 0 -45.5 -9.5t-37.5 -25t-25 -37.5t-9 -46v-509q0 -49 34.5 -83t82.5 -34h510q23 0 45 9t37.5 25t25 37.5t9.5 45.5
v509q0 32 -16 59t-43 43t-58 16h-510zM509 347v2v-1v-1zM607 240v0v0zM610 240h-1h-2q0 -2 3 0zM514 560q-106 0 -181 -75t-75 -181t75 -181t181 -75t181 75t75 181t-75 181t-181 75zM678 460q-16 -1 -22 -5q-8 -6 -9 -6t-4.5 -0.5t-5.5 -0.5q-4 -2 -7.5 -9t-7 -12.5
t-10.5 -3.5q-3 0 -6.5 3.5t-4.5 5t-5 6.5q0 2 -2 4q-6 7 -3 12q-1 -1 -3 -1h-2q1 3 6 5t6 3q2 4 -1.5 5.5t-9.5 2.5q-2 0 -2 1q1 3 5 1t6 -2q4 2 -5 7h-2q-9 -2 -7 1q0 1 2 3q-6 3 -16.5 10t-14.5 10q-1 -3 0.5 -4.5t4.5 -3.5l4 -2q3 -2 6 -3t4 -2q-1 -2 -4 -4.5t-6 -1.5
q-1 1 -2.5 4t-4.5 3q-2 -5 3.5 -7.5t5.5 -4.5q1 -5 -5 -3h-1h-1q-4 3 -4 1t3.5 -3t3.5 -3q-4 0 -7 1t-5 2l-6 3q-3 2 -5 3t-5 1.5t-4 0.5h-6q8 3 8 4q2 0 4 3l3 3q1 4 -5 8q-11 8 -13 8q-4 1 -6.5 0t-3 -2.5l-1.5 -4.5v-4q-1 -3 -2.5 -4.5t-4.5 -2.5v0q-10 0 -11 -1
q-1 0 -1 -3l-2 -4q-1 -2 -5 -3.5t-5 -2.5q-9 -6 -12 -11q-1 -2 -1 -4t1 -3.5t2.5 -3t3.5 -3t4.5 -2.5t5 -1.5t5 -1.5t3.5 -1.5t5 -1.5l8 -3q3 -1 4 -3q2 -2 1 -3.5t-0.5 -3.5t3.5 -3q4 -2 7 1q2 0 0 3t-2 4q-1 4 2 5q1 0 2 1q5 4 5 6t-2 7q-4 15 -2 17q4 1 6.5 1t7 -1.5
t5.5 -1.5q4 -2 10 -9q5 -5 7 -5t3 2.5t2 3.5q6 2 7 0.5t4 -8.5q2 -6 9 -12q11 -9 11 -12q-1 -4 -14 -8q-6 -2 -12.5 -0.5t-12.5 -0.5t-7 -10q1 1 6 4t7.5 3.5t5.5 -0.5q1 -1 0 -3.5t-1 -3.5q2 -4 5 -4t7 1q-1 0 -1 -1q6 4 9 9v2q1 2 2 3t1 2q5 2 9 -2q7 -9 5 -11
q-14 3 -23 -3q-12 -8 -13 -8h-9q1 1 4.5 3t4.5 3q-4 1 -15 -6q-2 -1 -3.5 -2.5t-3 -3.5t-2.5 -4q-1 0 -3.5 -1.5t-3.5 -2.5t-2 -3.5t-2 -3.5h-2q-2 -1 -3 -2q0 -2 1 -5v-2q-1 -2 -6 -5l-4 -4l1 1q-1 -1 -4 -3.5t-4 -4.5q4 -15 3 -17q-3 -4 -10 8q-2 4 -6 5t-7.5 0.5t-9 -1.5
t-7.5 -2q-10 0 -16.5 -10t-1 -19.5t17.5 -7.5q2 0 4 2t3 3.5t3 3t4 1.5q7 0 1 -11q-2 -2 -2 -3q-1 -3 0.5 -4t4.5 -1q1 -1 5 -0.5t4 -0.5q1 0 2 -2q1 -4 2 -3q-5 -7 1 -14q2 -1 4 -1.5t4 -0.5t4 0.5t3 -0.5q6 -1 10 3q1 1 4 3q2 2 5.5 0.5t4.5 -1.5t3.5 2t5.5 1q1 0 3.5 -2
t5.5 -2h3h2q7 -1 18 -9q1 -1 2 -1q1 -2 3 -2.5t3.5 -1t3.5 -0.5t4 -1q4 -1 8 -5t4 -8l-2 -4q-2 -3 -3 -4h3h5l3 1l-6 -2q0 -1 4 -4h1q1 3 2.5 4t2.5 1l4 -2q3 -2 4 -2q1 -1 3 -1.5t4 -0.5t4 -0.5t4 -0.5q4 -1 9 -3t7 -5q5 -5 -1 -14q-1 -2 -2 -3l-3 -3q-1 -1 -2.5 -2
t-2.5 -2.5t-2 -3.5q0 -2 -0.5 -4.5t-0.5 -5.5v-6q-1 -3 -1.5 -4t-2.5 -2t-3 -3l-3 -3l-3 -3q-2 0 -5 -1q-6 -2 -9 -6v1q-1 -2 -2 -6l-1 -3q-2 -3 -7 -8q0 -1 -0.5 -1t-1.5 -2l-4 -4q-1 -2 -2.5 -4.5t-3.5 -3.5l-1 -1q0 1 -5 0.5t-5 0.5q0 -2 2 -2q-1 -9 -5 -11.5t-14 -2.5
q1 -3 0 -4t-3.5 -2t-3 -2t-1.5 -5t-1.5 -4.5t-2.5 -3.5q-3 -4 -3 -5t1 -2l2 -2q-3 -1 -6 -1.5t-6.5 -1t-6.5 -1t-6 -0.5q2 3 -1 4h-3q1 2 3.5 5t2.5 5q1 1 1 2v2q2 4 1 5.5t-1 2.5q0 8 -0.5 8.5t1.5 7t3 7.5q2 6 3 18.5t2 15.5q2 16 0 21q0 2 -1.5 3.5t-3.5 3t-3.5 2.5
t-3.5 2.5t-3 2.5l-2 2q-2 2 -3.5 4t-2.5 3.5t-2.5 4t-2.5 3.5q-6 9 -6 10q-3 4 -1.5 5.5t1.5 2.5v5q0 5 2 8q0 2 3.5 6.5t4.5 6.5q1 4 0 7.5t-5 4.5q-1 1 -3.5 0t-4.5 -1l-5 2q-3 2 -5 4q-2 1 -5 5t-5 5.5t-5.5 2t-4.5 0.5t-2 1l-3 3q-1 1 -2.5 2t-2.5 2h-3h-3q-1 0 -3 -0.5
t-3 -0.5q-2 1 -5 2t-6 3t-4 3q-5 1 -8 3.5t-5 5.5t-4 7q-1 3 -2.5 5.5t-5.5 6.5l-4 4q-1 2 -3 4.5t-3 4t-3 2.5t-5 2l2 -7q2 -3 6 -8l4 -6q4 -5 3 -6t-5 4q-16 22 -17 24l-1 3q-1 3 -3 4q-1 2 -3 3l-4 2q-2 1 -3 2q-13 12 -11 36q0 1 1 5.5t0 6.5q-1 5 -5 9q-1 1 -3 4v1
q-5 9 -8 11q-2 2 -6 5t-7 5q36 46 91 69l2 -6q2 -3 12 -5q-1 -8 -14 -6q-14 2 -19 -3q10 -4 11 -1h5h6h6q1 0 4.5 -1t5 -1.5t3.5 0.5l2 3q0 3 1 3q-1 0 -3 1h-2q1 2 3 2h2q2 0 4.5 -1.5t3.5 -1.5q-6 -4 -2 -7q2 0 5 2q5 6 -7 12q8 8 14 0q1 3 9 2v2h-2q-2 1 -3 1l2 4
q1 2 1 2.5t1 1.5t3 2t5 1h7q3 0 5.5 1t3.5 3q-3 -1 -8 -1.5t-8 -1t-7 -1.5t-7 -3q-1 -1 -3 -2q-2 -2 -3 -2.5t-3 -1t-3 1.5q-4 5 6 12h-1q23 5 47 5q15 0 31 -2q-2 -1 -2 -2.5t-1 -2.5q-2 -1 -3.5 -2t-4 -2t-4.5 -1l-4 -2q-3 -1 -4 -2q2 0 9.5 -1t12.5 -0.5t7 5.5h-3l-4 1
q3 2 6.5 4t7.5 3q35 -7 65.5 -24t54.5 -42v0zM719 370h1q1 1 1 2l1 2q0 1 0.5 2t2 1.5t1.5 1.5q1 0 1 1q6 -16 10 -33h-1l-2 -1h-3q-2 0 -6 3l-3 3q-2 2 -2 3q-1 1 -1 8v2q-1 4 0 5zM722 253q-9 7 -13 13q-1 3 -1 17q0 1 -0.5 8.5t0.5 8.5l2 2q2 2 2 3q1 1 2 4t2.5 5t4.5 4
t4 3q2 1 4 5q1 2 1 3q3 6 8 9q1 -8 2 -17t1 -17q0 -30 -8 -58q-4 1 -11 7zM722 253z" />
    <glyph glyph-name="uniE61B" unicode="&#xe61b;" 
d="M282 555q-20 -20 -49 -20q-9 0 -18 2t-17 6.5t-14 11.5l-33 33l98 99l33 -33q7 -6 11.5 -14t7 -17t2.5 -18q0 -30 -21 -50zM249 621l-33 -33q7 -7 16.5 -7t16.5 7t7 16.5t-7 16.5zM397 412l-147 143l32 33l147 -142zM751 50l-133 140l33 33l133 -140zM850 -16
q-17 -17 -38 -25.5t-44 -8.5q-48 0 -82 34l-148 154l33 33l148 -154q20 -21 49 -20.5t49 20.5q10 10 15.5 23t5.5 26.5t-5.5 26.5t-15.5 23l-147 154l33 33l147 -154q34 -34 34 -82.5t-34 -82.5zM802 384q-48 -47 -115 -47q-33 0 -62.5 12t-52.5 35q-48 48 -48 116t48 115
l42 43l33 -33l-43 -43q-34 -34 -34 -82q0 -23 9 -44.5t25 -38.5q34 -34 83 -34q23 0 44 9t38 25l42 43l33 -33zM844 427l-49 50l-17 -17q-27 -27 -65 -27q-13 0 -24.5 3t-22 9t-19.5 15q-4 4 -8 9t-7 10.5t-5.5 11t-4 11.5t-2 12t-0.5 12q0 39 27 66l16 17l-49 49l33 33
l82 -82l-49 -50q-7 -7 -10.5 -15.5t-3.5 -17.5q0 -19 13.5 -33t33 -14t33.5 14l49 50l82 -83zM234 45v47h46v-47h-46zM538 273l-92 91l33 33l92 -91zM304 17l174 240l37 -28l-177 -244q-16 -16 -37.5 -25t-44.5 -9q-15 0 -30 4t-28 11.5t-24 18.5q-34 34 -34 83
q0 23 8.5 44.5t25.5 37.5l3 3l240 175l28 -38l-239 -174q-20 -20 -20 -48q0 -29 21 -50q19 -19 48 -19.5t49 18.5z" />
    <glyph glyph-name="uniE61C" unicode="&#xe61c;" 
d="M341 740h-135q-28 0 -54.5 -9t-47 -25t-33 -39.5t-12.5 -50.5v-136q0 -56 45.5 -101.5t101.5 -45.5h135q93 0 109 15t16 99v10v11v12v136q0 27 -9 50.5t-25.5 39.5t-39.5 25t-51 9zM420 495q0 -11 1 -31q-2 -12 -0.5 -22t-0.5 -18t-1.5 -14t-3.5 -11t-5.5 -8.5t-8.5 -5.5
t-12 -3.5t-16 -2t-21 -1t-26 -0.5h-105q-29 0 -56 17t-44 44.5t-17 55.5v106q0 21 10 39t26.5 29.5t37.5 18.5t43 7h105q44 0 69 -25.5t25 -69.5v-105zM341 243h-135q-59 0 -103 -35t-44 -89v-136q0 -56 45.5 -101.5t101.5 -45.5h135q36 0 65 21.5t44.5 54.5t15.5 71v136
q0 85 -6 100q-8 20 -46 23q-12 1 -73 1zM420 -2q0 -17 -4 -34t-12 -32t-19.5 -26.5t-26.5 -18t-32 -6.5h-105q-44 0 -80.5 36.5t-36.5 80.5v106q0 41 35.5 67.5t81.5 26.5h105h21h31q9 0 20.5 -3t13.5 -5.5t5.5 -13.5t3.5 -20t-1 -32v-20v-106zM838 740h-135
q-38 0 -71.5 -15t-54.5 -44t-21 -65v-136q0 -38 1 -59t7 -40t13.5 -26.5t26.5 -13.5t40 -7t59 -1h135q36 0 65 21.5t44.5 54.5t15.5 71v136q0 37 -15.5 65t-44 43.5t-65.5 15.5zM917 495q0 -46 -26 -81.5t-68 -35.5h-105q-19 0 -32 1t-25.5 2t-20 4t-15 7t-11 11t-6.5 14.5
t-4.5 20t-2 25.5t-0.5 32v105q0 42 35.5 68.5t81.5 26.5h105q29 0 50.5 -11.5t32.5 -33t11 -50.5v-105zM838 243h-135h-32q-16 -2 -29.5 0t-24 -0.5t-18.5 -2.5t-14.5 -4.5t-11 -7.5t-8 -11.5t-5 -15.5t-2.5 -21t-1.5 -27.5t-0.5 -33.5v-136q0 -56 45.5 -101.5t101.5 -45.5
h135q36 0 65 21.5t44.5 54.5t15.5 71v136q0 56 -34.5 90t-90.5 34zM917 -2q0 -46 -26 -81.5t-68 -35.5h-105q-44 0 -80.5 36.5t-36.5 80.5v106q0 22 0.5 35t3 25t6 17t10 10.5t15.5 5t22 1.5t30 0h30h105q44 0 69 -25.5t25 -68.5v-106z" />
    <glyph glyph-name="uniE61D" unicode="&#xe61d;" 
d="M512 -212q-139 0 -257 68.5t-186.5 186.5t-68.5 257t68.5 257t186.5 186.5t257 68.5t257 -68.5t186.5 -186.5t68.5 -257t-68.5 -257t-186.5 -186.5t-257 -68.5zM512 780q-98 0 -186.5 -38t-153 -102.5t-102.5 -153t-38 -186.5t38 -186.5t102.5 -153t153 -102.5t186.5 -38
t186.5 38t153 102.5t102.5 153t38 186.5t-38 186.5t-102.5 153t-153 102.5t-186.5 38zM496 364l144 160l96 -96l-160 -144zM640 487l-112 -123l48 -48l124 111zM485 139l-160 -61l-12 12l54 176l105 61l71 -75zM337 108l-1 1v-1h1zM464 300l-77 -56l-44 -118l83 83l11 -11
l-82 -83l109 43l48 94z" />
    <glyph glyph-name="uniE61E" unicode="&#xe61e;" 
d="M512 761q63 0 122.5 -16.5t110 -46.5t93 -72.5t72.5 -93t46.5 -110t16.5 -122.5q0 -94 -36.5 -179t-98.5 -147t-147 -98.5t-179 -36.5t-179 36.5t-147 98.5t-98.5 147t-36.5 179q0 75 23.5 145.5t66 127t99 99t127 66t145.5 23.5zM512 812q-139 0 -257 -68.5
t-186.5 -186.5t-68.5 -257t68.5 -257t186.5 -186.5t257 -68.5t257 68.5t186.5 186.5t68.5 257t-68.5 257t-186.5 186.5t-257 68.5zM368 561q13 3 26.5 -5.5t20 -17.5t17.5 -26q2 -2 2 -4q11 -17 16 -25.5t9.5 -25t0.5 -30.5q-1 -6 -5 -12t-7 -8.5t-10 -8.5t-9 -7
q-2 -3 -7 -6.5t-8.5 -6t-7 -6t-6.5 -7.5t-4 -9q-5 -9 -1 -24t8 -23t11 -18q33 -52 80 -91q37 -30 60 -26q14 3 26 15.5t24.5 24t27.5 13.5q31 5 68 -28q8 -7 9 -8q2 -2 10 -8.5t11.5 -9.5t9.5 -9.5t9 -11.5t5 -12t2 -13q-1 -8 -5.5 -15.5t-7.5 -10t-12 -10.5q-4 -3 -11 -10
q-14 -13 -21 -18q-41 -27 -98 -25q-44 1 -94 28q-64 35 -133 112q-67 75 -93 150q-18 54 -10.5 104t38.5 85q3 3 27 23q1 2 3.5 4t4.5 3.5t4 3.5t4 3l6 4q2 1 4.5 2t5.5 1z" />
    <glyph glyph-name="uniE61F" unicode="&#xe61f;" 
d="M226 400h159q8 0 14.5 4t10.5 10.5t4 14t-4 14.5t-10.5 10.5t-14.5 3.5h-159q-7 0 -14 -3.5t-10.5 -10.5t-3.5 -14q0 -12 8.5 -20.5t19.5 -8.5zM385 303h-159q-11 0 -19.5 -8.5t-8.5 -20.5q0 -3 0.5 -6.5t2 -6t3.5 -5t4.5 -4.5t5.5 -3.5t6 -2.5t6 -1h159q12 0 20.5 8.5
t8.5 20.5t-8.5 20.5t-20.5 8.5zM385 143h-159q-7 0 -14 -4t-10.5 -10.5t-3.5 -14.5q0 -5 1.5 -9.5t4 -8t6 -6t8 -4t8.5 -1.5h159q8 0 14.5 4t10.5 10.5t4 14.5q0 12 -8.5 20.5t-20.5 8.5zM844 643v72q0 13 -11 22.5t-26 9.5h-181q-10 0 -18.5 -4.5t-13 -12t-4.5 -15.5v-79
q-42 -14 -73 -36q-31 25 -81 39.5t-84 15.5l-34 2q-51 2 -95.5 -6t-72 -20.5t-48 -25.5t-28.5 -22l-9 -10l1 -8l-1 -1v-685q0 -11 9.5 -18.5t22.5 -7.5q1 0 4 1h2v-1l4 2q3 1 7 3q14 6 31.5 11.5t47.5 13t64 10t73.5 1.5t85 -11.5t88.5 -29.5v2q6 -2 8 -2q4 0 9 2v-2
q3 2 7 4t19 7.5t31 10t40 9.5t49 8t56.5 3t62.5 -4t66.5 -13.5t70.5 -24.5v2q6 -2 7 -2q5 0 10 1.5t8.5 4t6.5 5.5t4.5 7t1.5 8v630v64q-32 48 -117 70zM686 687h60q5 0 9 -1.5t7.5 -4.5t6.5 -7t5 -9t3 -10.5t1 -11.5v-375l-37 26q-15 11 -32 -1l-5 -2l-50 -34v386
q0 18 9 31t23 13zM128 -62v610q54 31 108 43t99.5 6.5t80 -17t65.5 -28.5v-614q-176 58 -353 0zM899 -62q-27 9 -58 15.5t-78.5 11t-105 -2t-114.5 -25.5v608q12 6 23.5 12t23.5 11v-362q0 -13 10.5 -22.5t25.5 -9.5h11l-1 1q6 1 10 3l78 54l74 -53q5 -4 14 -4v0q16 0 25 13
q1 1 1 2l1 2q2 3 3 5q0 1 1 4v1v1l1 3v372q15 -6 28.5 -12t26.5 -13v-615zM512 -147z" />
  </font>
</defs>
</svg>
