<svg version="1.1" id="svg-girl-top" xmlns="http://www.w3.org/2000/svg" xmlns:xlink="http://www.w3.org/1999/xlink" x="0px"
	 y="0px" viewBox="0 0 1600 1498" width="1600" height="1498" xml:space="preserve">
<style type="text/css">
	#svg-girl-top .st0{fill:#FFFFFF;}
	#svg-girl-top .st1{fill:#2795D4;}
	#svg-girl-top .st2{fill-rule:evenodd;clip-rule:evenodd;fill:#2795D4;}
</style>
<g>
	<g>
		<path d="M1028,0c11.6,10,23.1,19.9,34.6,30c1.9,1.7,3.2,4.1,5,6c4.3,4.6,9.2,8.6,12.9,13.7c8,11.2,15.7,22.7,23,34.3
			c4.8,7.6,8.7,15.8,13.2,23.7c5.2,9.2,11,18.1,15.8,27.4c4,7.7,6.7,16.1,10.6,23.9c3.7,7.5,8.2,14.7,12.2,22.1
			c1.1,2,1.5,4.4,2.5,6.5c4.4,9.2,8.9,18.4,13.4,27.5c4.8,9.8,9.5,19.8,14.7,29.4c7.8,14.2,15.5,28.5,24.2,42.2
			c6.6,10.3,14.7,19.6,21.9,29.4c5.7,7.7,11.5,15.3,16.8,23.3c7,10.4,13.9,20.9,20.2,31.8c3.6,6.2,5.8,13.3,8.9,19.9
			c5.4,11.3,9.9,22.8,10.8,35.4c0.8,11.2,0.9,22.4-2.6,33.4c-3.1,9.7-5.5,19.8-9.6,29.1c-5.3,11.8-11.3,23.4-22.3,31.5
			c-5.8,4.3-10.2,10.1-17.2,13c-7.2,3-11.2,7.4-15.8,13.9c-7.4,10.4-16.6,18.8-27.7,25.2c-10.6,6-21.9,6.6-33.3,3.4
			c-4.3-1.3-6.1-0.4-8,3.6c-4.6,9.4-11.9,17.1-20.3,22.6c-7.2,4.7-16.3,6.9-24.9,9c-7.9,2-16.2,2.6-24.4,3.4
			c-3.9,0.4-7.9,0-11.8-0.6c-6.7-1.1-13.4-2.2-19.8-4.1c-5-1.5-8.8,0-12.3,3.1c-12,10.5-25.9,16.4-41.9,17.3
			c-2.4,0.1-5.2,0.3-7.2-0.7c-3.9-1.9-6.3-0.3-9.3,1.7c-9.6,6.6-19.4,12.8-28.9,19.4c-1.7,1.2-3.3,2.9-4.1,4.8
			c-5.7,13.9-6.4,28.8-7.6,43.4c-0.6,7.4,3.5,14.2,9.8,18.8c6,4.4,12.4,8.3,18.5,12.5c12.5,8.6,25.1,17.1,37.6,25.8
			c12.6,8.7,21.7,20.5,30.5,32.9c11.9,16.7,16.5,36.2,23.1,54.9c1.9,5.2,5.4,10,8.6,14.6c11.5,16.1,23.7,31.8,34.6,48.3
			c9.4,14.3,16.8,30,26.1,44.4c7,10.8,8.6,23.1,11.7,34.9c2.6,9.6,3.6,19.8,4.1,29.9c0.7,13.7,0.6,27.5,0,41.2
			c-0.5,11.7,2.9,22.4,7.2,32.8c8.1,19.7,17.2,39,25,58.9c4.7,12.1,9.2,24,16.3,34.9c4.1,6.2,7.3,12.9,11.2,19.3
			c6.6,10.9,13.4,21.6,20.1,32.5c7.9,12.9,15.6,25.8,23.3,38.8c2.3,4,3.9,8.4,6.4,12.3c4.3,6.8,9.2,13.2,13.7,19.9
			c7.7,11.6,15,23.4,22.7,34.9c9.3,14,18.8,28,28.4,41.8c5.2,7.4,10.7,14.6,16.1,21.8c6.1,8.1,12.3,16,18.3,24.1
			c4,5.4,7.8,10.9,13,16.5c0.3-5.5,1.2-11,0.7-16.4c-2.2-23.3-5-46.6-7.3-69.9c-0.4-3.8-0.2-7.7,0.5-11.4
			c2.7-14.2,16.9-19.5,29.2-11.6c9.3,6,10.8,15.8,13.9,25c1.9,5.7,3.7,11.5,5.9,18.2c1.7-7.4,3.1-14,4.6-20.6
			c3.7-16.3,7.4-32.6,11.4-48.8c1-4.1,2.8-8.5,5.5-11.6c2.6-2.8,6.7-4.8,10.5-5.8c8-2.2,15.9-0.5,23.2,3.1c1.8,0.9,3.2,2.9,4.2,4.7
			c4.2,7.3,5.3,15.2,4.3,23.5c-1.3,10.8-2.3,21.7-3.5,32.5c-0.4,3.2-1.1,6.4-1.6,9.5c0.4,0.1,0.8,0.3,1.2,0.4c2.4-6,4.8-12.1,7.3-18
			c6.8-15.8,11.1-32.8,22-46.5c4.5-5.6,12-7,19.1-6.3c12.2,1.2,18.7,5.2,19.7,14.5c0.8,7.7,0,16-2,23.5c-3.9,14-9.4,27.5-13.8,41.3
			c-3.2,9.9-5.4,20-8.6,29.9c-1.7,5.2-4.3,10.1-6.5,15.1c0.4,0.3,0.9,0.5,1.3,0.8c4.8-6,9.4-12.1,14.3-18.1
			c4.6-5.6,9.3-11.2,14.2-16.4c7-7.4,14.1-14.8,21.7-21.6c6-5.4,12.9-8.8,21.8-6.8c7.8,1.8,17,9.4,16.1,19.4
			c-1.6,18-9.1,33.2-19.3,47.5c-4.2,5.9-8.2,11.9-12.5,17.8c-2.3,3.2-5.2,6-7.2,9.3c-9.5,15.5-18.7,31-28,46.6c-6.3,0-12.7,0-19,0
			c0.2-1,0.1-2,0.5-2.8c2.7-6.5,6.7-12.5,9.6-18.7c4.2-8.9,9.8-16.7,15-24.8c4.3-6.6,7.8-13.9,12.9-19.8
			c8.1-9.3,15.7-18.8,20.9-29.9c3.5-7.5,8.1-14.9,7.1-23.8c-0.4-3.6-2-4.6-4.9-2.3c-2.5,2-4.6,4.5-6.9,6.8
			c-4.4,4.4-9.4,8.5-13.2,13.3c-16.8,21.2-33.6,42.4-53.2,61.2c-4.5,4.4-11.8,5.5-15.6,2.4c-4.7-3.8-3.1-9.5-2.5-13.8
			c1.1-8.4,4-16.7,6.7-24.8c3.8-11.4,8.3-22.7,12.3-34.1c2.1-5.9,3.7-12,5.4-18c4.6-15.7,9.4-31.3,13.5-47c0.8-2.9-0.8-6.4-1.3-9.7
			c-2.8,2.3-5.5,4.6-8.3,6.9c-0.1,0.1-0.1,0.3-0.2,0.5c-3.2,8-6.3,16-9.6,23.9c-3.3,8.1-6.5,16.3-9.9,24.3c-3.6,8.4-7.6,16.6-11,25
			c-4.2,10.4-7.6,21.2-12.3,31.5c-2.4,5.3-6,10.4-10.2,14.4c-5,4.8-12.2,2-12.8-5c-0.7-8.1-0.4-16.4,0.3-24.6
			c0.7-8,2.4-15.9,3.6-23.9c1.9-12.8,3.3-25.6,5.6-38.3c2.1-11.7,3.4-23.3,1.7-35.1c-0.3-1.8-1.8-3.4-2.8-5.1
			c-2.1,1.3-5.4,2.1-6.1,4c-3.3,8.8-6.4,17.8-8.7,26.9c-2.6,10.7-4.3,21.6-6.2,32.4c-1.9,11-3.3,22.2-5.4,33.2
			c-1.5,8.1-3.6,16.1-5.8,24c-1.3,4.9-6,5.2-9.8,5.1c-2.2,0-5.7-2.1-6.4-4.1c-3.6-9.6-7-19.3-9.5-29.2c-3.3-13.1-5.7-26.5-8.7-39.7
			c-0.7-3.1-2.7-5.9-4.1-8.8c-0.6,0.2-1.3,0.4-1.9,0.6c0.5,5.5,0.9,11,1.7,16.4c1.6,11.8,4.3,23.5,4.8,35.4
			c0.8,19.5,0.5,39-3.4,58.3c-0.2,1.1-0.3,2.5,0.3,3.3c4.2,5.7,8.3,11.5,12.9,16.9c5.8,6.9,5.6,11.2-1.3,16.3c-2.7,0-5.3,0-8,0
			c-1.2-1.1-2.6-2-3.7-3.2c-7.1-8.1-14.3-16-21-24.4c-8-10.1-15.3-20.7-23.1-31c-3.2-4.2-7.1-7.8-10.1-12
			c-11.7-16.4-23.3-32.9-34.8-49.4c-9.8-14.1-19.6-28.2-29.2-42.5c-5.6-8.3-10.9-16.9-16.4-25.3c-5-7.8-10-15.6-14.8-23.5
			c-3.2-5.3-5.8-11.1-9-16.4c-6.2-10.2-12.8-20.2-18.9-30.4c-6-10.1-11.8-20.3-17.6-30.5c-6.9-12.1-14.2-24-20.4-36.4
			c-6.1-12.3-11.2-25.1-16.7-37.7c-1-2.3-1.8-4.7-2.7-7.1c-0.7,3-0.6,5.6-0.7,8.2c-0.2,14.1-0.7,28.3-0.6,42.4
			c0.1,14.7,0.9,29.4,1.3,44.1c0.2,6.1,0,12.2,0.5,18.2c1.2,16.8,2.7,33.6,4.1,50.4c0.7,8.9,1.3,17.8,2.3,26.6
			c1,8.7,2.5,17.3,3.6,26c2.4,18.7,4.7,37.5,7.2,56.2c0.4,2.8,0.6,6.1,2.2,8c6.2,7.3,12.6,14.4,19.5,20.9
			c10.6,10.1,21.8,19.6,32.7,29.5c3.9,3.5,7.3,7.5,11,11.2c9.4,9.4,18.8,18.7,28.2,28.1c-9.3,0-18.7,0-28,0
			c-2.4-2.9-4.5-6.1-7.3-8.7c-11.8-11.1-23.8-22.1-35.7-33.1c-3.9-3.6-7.8-7.2-11.6-10.8c-0.5,0.3-0.9,0.5-1.4,0.8
			c0.8,2.9,1.5,5.8,2.3,8.8c2.5,10.1,5,20.2,7.5,30.3c1.1,4.3,2.2,8.5,3.3,12.8c-6.7,0-13.3,0-20,0c-0.4-1.8-0.9-3.5-1.3-5.3
			c-2.6-12-5.2-24-7.9-35.9c-3-12.9-6.7-25.6-9.3-38.5c-2.4-11.8-3.8-23.9-5.6-35.8c-2.3-15-5-30-6.5-45.2
			c-2-20.1-3.1-40.2-4.4-60.4c-1.4-21.8-2.8-43.7-4-65.5c-0.4-7.4-0.6-14.8-0.7-22.1c0-5.6,0.6-11.1,0.5-16.7
			c-0.3-10.8-1.1-21.5-1.3-32.3c-0.3-13.2-0.5-26.4-0.5-39.7c0-18.2,0.6-36.4,0.4-54.6c-0.2-14.9,0-29.9-1.9-44.7
			c-2.3-17.9-8.1-35-18-50.5c-10-15.5-16.9-32.9-28.9-47.3c-4.4-5.3-7.5-11.8-11.9-17.1c-11.6-14-23.7-27.7-35.6-41.5
			c-4-4.6-3.8-8,0.8-11.8c0.9-0.7,1.9-1.3,3.1-2.1c-6.4-26.4-21.8-46.4-43.1-63.8c-1.1,3.4-2.1,5.6-2.6,7.8
			c-3,13.5-11.5,22.8-22.9,29.8c-9.5,5.8-19.3,10.2-30.5,12.7c-12.3,2.8-24.5,4.9-36.9,4.4c-13.3-0.5-26.6-2.1-39.8-3.6
			c-10-1.2-20-2.5-29.8-4.7c-13.8-3-26.1-9.9-38.6-16.2c-5.4-2.8-11.7-3.9-17-7c-9.8-5.7-19-12.7-28.8-18.4
			c-11.8-6.9-19.7-17.6-28.9-27.1c-2.7-2.8-3.8-8.3-6.8-9.4c-3.2-1.2-7.9,0.9-11.8,2.2c-21.4,7-44.8,8-64.3,20.8
			c-7.4,4.8-15.2,9.4-21.5,15.5c-10.2,10-19.2,21.2-29,31.7c-3.7,4-8.6,6.9-12.1,11c-5.7,6.6-10.4,14.1-16.1,20.7
			c-8.7,9.9-7.1,21.6-7.5,34.3c1.3-1.4,1.8-1.7,2.1-2.3c5.3-9.4,10.3-19,16.1-28.1c1.7-2.7,5.2-5.7,8.2-6.1
			c13.6-1.9,26.6,2.2,38.8,7.4c9.6,4.1,18.3,10.4,27.3,15.7c2.5,1.5,5,3,7.9,4.7c0.4-1.5,0.7-2.4,1-3.4c2.3-8.8,10.7-16.8,19.3-17.6
			c16.7-1.6,33.3-3.1,49.8,1.8c9.2,2.7,17.9,11.3,20.2,20.7c3.6,14.8,3.7,29.9,3,44.9c-0.5,10.3-2.5,20.3-10.2,28.4
			c-2.3,2.4-3.8,6.2-4.4,9.5c-0.8,4.5-0.1,9.2-0.6,13.7c-0.9,7,0.3,8.7,6.7,12c4.7,2.4,9.3,5.6,13.1,9.3c2.4,2.3,3.2,6.2,5.1,10.1
			c7.8-7.3,15.4-14.4,23-21.5c13.2-12.2,20.5-13.3,37.2-7.8c11.1,3.6,17.3,21.9,12.4,34c-4.5,11-8.9,21.8-17.4,30.8
			c-8.2,8.7-14.6,19-21.8,28.6c-5.8,7.7-11.7,15.4-17.8,23.5c0.9,0.7,2.1,2,3.6,3c4.4,3.1,9,5.9,13.1,9.4
			c6.4,5.4,12.1,11.7,18.8,16.8c6.1,4.7,9.5,11.3,10.9,17.9c2.1,9.9,2.2,20.4,2.3,30.6c0.1,10.2-1.1,20.3-1.2,30.5
			c-0.4,22.9-0.4,45.7-0.6,68.6c-0.2,19.5-0.4,39.1-0.5,58.6c0,6.3,0.6,12.6,0.4,18.9c-0.2,9.3-1,18.6-1.3,27.9
			c-0.3,9.3-0.4,18.6-0.6,27.9c-0.2,11.1-0.5,22.3-0.4,33.4c0.1,11.9,0.7,23.8,0.8,35.7c0.1,12.9,0,25.8,0,38.6
			c-78.3,0-156.7,0-235,0c0.1-9.7,0.1-19.3,0.2-29c0.1-4.1,0.7-8.2,0.6-12.2c-0.1-12-0.7-24.1-0.6-36.1c0.1-10.1,1.1-20.1,1.4-30.2
			c0.4-14.1,0.4-28.2,0.5-42.3c0.1-11.1,0.2-22.2,0.3-33.4c0.1-10.1,0.3-20.2,0.4-30.3c0.1-12.4,0-24.7,0-37.4c-1.6,0-3-0.3-4.2,0
			c-17.4,4.7-34.2,0.8-50.5-4.6c-8.6-2.8-16.2-8.5-24.4-12.5c-10.4-5.2-18.7-12.7-25.8-21.8c-1.9-2.4-5.3-3.8-6.9-6.3
			c-9.4-14.5-15.6-30.2-17.6-47.5c-1.5-13.2,0.8-26.1,3.2-39c1.6-8.5,2.6-17.1,5.1-25.3c6.1-19.4,13.5-38.4,19.3-58
			c6.9-23.5,18.2-45.1,27.2-67.7c2-5,5.3-9.6,7.6-14.5c6.5-13.9,12.7-28,19.4-41.9c2.7-5.7,4.2-10.1,1.6-17.1
			c-7-19.1-8.2-38.9,2.8-57.5c4.1-6.9,8.8-13.5,14.1-19.5c10.4-11.8,21.2-23.2,32.2-34.4c8.9-9.1,17.8-18.5,27.8-26.3
			c8.3-6.4,17.9-11.5,27.6-15.3c12.5-4.9,25.4-9.1,38.6-11.5c20.4-3.8,40.1-8.7,57.5-20.4c6.8-4.5,13-10,16.2-17.7
			c3.8-9.2,7.4-18.5,9.9-28c1.6-6,1.6-12.5,1.3-18.8c-0.4-7.9-6.4-12.9-12-17.4c-8.9-7.2-18.1-14-27.4-20.5
			c-2.1-1.5-5.6-1.6-8.4-1.5c-5.7,0.4-11.3,1.9-17,2c-23.2,0.5-42.3-9-58.9-24.7c-3.1-2.9-7.6-5.2-11.7-5.7
			c-5.6-0.7-11.4,0.3-17.1,1c-14.1,1.8-25.8-4.4-34.9-13.4c-5.8-5.7-10.9-6.4-17.7-5.6c-0.5,0.1-1,0.2-1.5,0.2
			c-19.8,2.2-38.3,0.1-55.4-11.7c-13.2-9.1-22.3-20.4-25.5-36c-1.7-8.4-9.3-12-16.7-6c-3.4,2.8-7.5,5.2-11.7,6.3
			c-10.3,2.8-25.6-4-30-14c-4-9-7.1-18.6-9.1-28.2c-2.5-11.6-1-23.4,1.6-34.9c2.3-10.3,4.6-20.7,8-30.6c2.6-7.6,7-14.6,10.8-21.8
			c7.8-14.6,17-28.4,27.2-41.5c3.3-4.2,5.3-9.4,8-14.2c-0.4-0.2-0.7-0.5-1.1-0.7c-2.7,2.6-5.2,5.4-8.2,7.7
			c-6.5,4.9-13.2,9.4-19.8,14.1c-22.7,16.1-42,35.3-54.6,60.6c-4.7,9.4-6.9,19.5-6.2,30.2c0.2,2.4-1.7,5.8-3.7,7.3
			c-1.4,1.1-5.1,0.7-7-0.4c-6.6-4-8.7-11.3-10.2-18.1c-3.1-14-4.2-28.2-2.5-42.5c2.3-19.1,8.8-36.3,21.4-50.9
			c5.7-6.6,11.5-13.2,17.8-19.4c9.8-9.7,19.7-19.4,30.2-28.3c13.1-11,27-20.9,40.4-31.5c11.8-9.4,23.8-18.5,34.7-28.9
			c12-11.5,23-24.1,33.9-36.7c7.8-9,14.9-18.5,21.8-28.2c8.1-11.4,15.5-23.3,23.4-35c4.7-7,10.2-13.6,14.2-21
			c8.8-16.1,19.9-30.5,31.6-44.3c8.4-9.9,18-19,27.7-27.7C654.4,19.3,666.3,9.8,678,0C794.7,0,911.3,0,1028,0z M616.7,334.7
			c-7.6,3.5-12.9,8.4-16.7,15.1c-5,8.8-7.4,18.4-8.8,28.3c-1.8,12.6-1.4,25.2,2.7,37.3c5.7,16.6,14,31.4,29.6,40.7
			c7.8,4.6,15.5,9.7,23.9,12.8c10.6,4,17.7,10.1,20.7,21.3c2.2,8.1,5.9,15.7,8.7,23.7c7.1,19.9,19,37,32.4,52.9
			c8,9.5,16.6,18.7,27.2,25.8c8.1,5.4,15,12.6,23.3,17.5c9.9,5.8,14.8,14.5,17.2,24.9c2.1,8.9,1.3,17.9-0.5,27
			c-3.4,16.4-9.5,31.3-20.8,43.9c-7.5,8.5-15,16.9-26.4,20.4c-4.2,1.3-4.2,5.5-0.4,8.9c5.7,5.2,11.1,10.9,17.1,15.6
			c9,7,18,14.1,27.9,19.7c9.8,5.7,20.6,9.7,31.1,14.3c7.1,3.1,14.2,6.7,21.7,8.5c15.7,3.8,31.4,7.9,47.7,9.2
			c21.6,1.8,43.1,3.8,63.9-4.7c13-5.3,26.2-10.4,30.5-25.8c1.4-4.9,2.2-10,2.4-15.1c0.2-6.7-6.1-7.3-10.5-9.6
			c-0.6-0.3-1.1-0.8-1.6-1.2c-8.1-5.8-16.4-11.2-24.1-17.4c-7.6-6.2-14.5-13.9-13.8-24.2c1-14.6,3-29.3,5.9-43.7
			c2-10,5.4-20,15.9-25.2c4.9-2.4,9.4-5.4,14-8.3c15-9.6,28.7-21,40.2-34.4c10.7-12.5,20.3-26,29.5-39.6
			c9.7-14.4,16.8-30.4,21.6-47.1c4.8-16.5,9.6-32.9,11.5-50.2c2-18,4.2-35.9,3.3-54c-0.7-14.6-2.7-29.2-4.4-43.8
			c-1.7-13.7-3.6-27.5-5.9-41.1c-2.3-13.8-5.4-27.5-7.8-41.3c-2.3-13.3-4.1-26.6-9.9-39c-6.7-14.2-16.1-26.4-27.4-37.3
			c-4.6-4.5-7.8-10.8-12.9-14.3c-8.3-5.8-17.7-10.2-26.8-14.9c-3.4-1.7-7.2-2.4-10.5,1c-4.7,4.9-10.4,6.4-17.3,6.7
			c-9.6,0.4-26.3-7.2-30.9-15.5c-1.3-2.4-3.3-4.5-5.1-6.5c-4.6-5.1-9.5-10-13.9-15.4c-3.3-4.1-6-8.7-8.8-12.8
			c-4.8,5.7-9.4,11-13.9,16.5c-11.7,14.4-26.7,23-45.2,25c-6.6,0.7-11.3-2.9-12.1-9.3c-0.4-3.3-0.7-6.6-1.3-9.8
			c-0.5-2.6-1.8-4.9-4.7-2.4c-3.3,2.9-6.6,6.2-9.2,9.7c-6.2,8.3-19.5,12.5-28.7,7.8c-5.6-2.9-10.8-2.7-16.2-0.8
			c-4.7,1.7-9.1,4.1-13.9,5.4c-8.5,2.3-10.5,8.6-10.9,16.2c-0.5,7.3-3.7,13-10,16.7c-8.1,4.7-16.4,9.1-24.5,13.8
			c-1.4,0.8-2.7,1.9-3.7,3.2c-6.5,8.9-6.3,20-8.9,30.1c-2.3,8.9-2.8,18.2-4.5,27.3c-2.6,14.4-5.3,28.8-8.5,43
			c-2,9-4.7,17.9-7.9,26.5c-2.4,6.5-12.9,12.6-18.3,11.7c-11.6-2-18.8-8.5-20.2-18C618.6,338.8,617.6,337,616.7,334.7z M656.1,967.5
			c0.5-4.1,1.1-7.2,1.3-10.2c0.4-6,3-12.7-4.5-16.7c-1-0.5-1.5-2.1-2.1-3.3c-7-15.7-8.7-32.1-7.4-49c0.1-1.5,0.1-3.7-0.8-4.4
			c-6.6-5.4-12.9-11.4-20.3-15.5c-10.4-5.8-21.3-10.7-32.4-15.2c-11-4.5-14.6-2.7-19.8,8c-0.4,0.9-0.8,1.8-1.2,2.7
			c-5.9,13-11.7,26.1-17.7,39.1c-4.7,10.2-9.4,20.4-14.1,30.6c-6.5,13.9-12.9,27.9-19.4,41.8c-3.7,7.9-7.5,15.8-11.2,23.7
			c-2.2,4.8-4.6,9.5-6.3,14.5c-3.5,10.1-6.4,20.4-9.9,30.5c-3.2,9.2-7,18.2-10.1,27.4c-2.1,6.4-3.5,13-5,19.6
			c-2.6,10.9-5.1,21.8-7.4,32.8c-1,4.7-0.6,9.7-1.9,14.2c-2.2,7.9,0.2,15.4,1.9,22.8c1.3,6,4.5,11.7,6.7,17.5
			c3.5,9.4,9.9,16.9,17.2,23.3c7,6.1,15,11.3,22.9,16.3c5.8,3.6,12.2,6.6,18.6,9.1c4.1,1.6,8.6,2.2,13,2.9c9.1,1.5,18.2,3.6,27.4,0
			c2.9-1.1,4.8-2.6,4.7-6.1c-0.1-5.5,0.1-11-0.1-16.5c-0.1-1.4-1-3.2-2.1-4.1c-4.7-3.9-9.6-7.5-14.4-11.4
			c-7.6-6.3-13.5-14.2-15.3-23.8c-1.6-8.6-1.2-17.6-1-26.4c0.8-26.5,2.1-53.1,3.1-79.6c0.1-2.5-0.2-5-0.3-7.4
			c-6.9,1.3-13,2.8-19.2,3.5c-1.5,0.2-4-1.7-4.8-3.3c-0.5-0.9,1-3.7,2.3-4.6c5.3-3.5,11-6.5,16.3-10c3.8-2.5,8.5-5.1,10.4-8.8
			c6.2-12.5,15.5-21.1,28.3-25.7c5.1-1.8,6.2-4.8,6.8-9.4c1.2-10.4,4.3-20.1,12.7-27.2c2.1-1.8,4.2-4,6.7-5
			c14.2-5.7,28.4-4.2,42.5,1C652.1,965.8,654,966.6,656.1,967.5z M595.4,1213.6c0,9.3-0.1,18.9,0.2,28.6c0,1.2,2.1,3.2,3.4,3.4
			c7.8,1.3,15.7,2.7,23.7,3.1c19.4,1,38.9,1.6,58.3,2.1c18.2,0.5,36.4,0.8,54.6,0.9c7.6,0,15.3-0.7,22.9-1.4
			c9.2-0.9,18.5-2,27.7-3.2c3.3-0.4,5.3-2.2,5.3-6c-0.1-9.1-0.3-18.3,0-27.4c0.4-11.4,1.7-22.9,1.7-34.3c0-13.5-0.3-27.2-1.6-40.6
			c-1-11-7.6-19.1-16.7-25.4c-7.3-5.1-14.5-10.4-21.5-16c-6.6-5.4-12.9-11.2-19.5-17.1c-2.7,4.4-4.4,8.5-7.2,11.6
			c-2.7,3-6.6,5-10.1,7.5c3.6,11.6-3.3,16.6-13,19.7c-10.8,3.5-21.7,0.6-32.2-3c-8.3-2.8-13.6-8-13.7-16.8c0-2.6-0.3-5.4-1.2-7.8
			c-0.7-1.7-2.6-3.5-4.3-4c-4.5-1.1-9.1-1.6-13.7-2.2c-3.1-0.4-6.3-0.4-10-0.6c4.2,8.4,9.1,14.5,15.8,19.8c9.1,7.3,19,12.5,30,16
			c11.6,3.7,23.6,6.7,34.8,11.4c8.4,3.5,16.2,9.2,17.7,19.4c1.3,9.1,1,18.2-6.2,25.1c-2.7,2.6-5.9,4.6-9.1,6.5
			c-5,2.9-11.6,3.7-11.1,12.1c0.2,3.6-1,7.7-2.9,10.8c-7.5,12.9-19.3,19.2-33.9,20.4c-12.2,1-24.2-0.5-36-3.7
			C617,1219.6,606.4,1216.6,595.4,1213.6z M603.5,1079.8c-4.7-0.7-9.6-0.9-14.2-2.2c-1.6-0.4-3.5-3.2-3.6-5.1
			c-0.1-2,1.1-4.8,2.6-6.2c4.1-3.8,9.5-2.2,14.2-1.9c9.7,0.5,19.4,2.3,29.1,2.6c14.9,0.4,29.6,2.4,44.1,5.9
			c9.5,2.3,18.9,4.9,28.4,6.8c7.1,1.4,11.9-4,10.1-11.2c-3.1-12.5-11.5-20-23.6-23.8c-16.5-5.2-33.2-10-49.5-15.9
			c-16.6-5.9-33.4-8.7-51-7.8c-10.2,0.5-16.7,4.6-19.3,14.5c-1.9,7.3-2.7,15-3,22.6c-0.9,18.4-1.5,36.7-1.8,55.1
			c-0.3,15.6-0.1,31.3,0,46.9c0,6.9,1.9,13.1,7.5,17.5c3.9,3,8,5.8,12.3,8c10.3,5.2,20.4,11.2,31.3,14.8c11.4,3.7,23.6,5.2,35.5,7.1
			c7.9,1.3,15.7,0.6,23-3.8c4.6-2.7,8.2-10.6,6.1-15.6c-0.3-0.8-1.6-1.6-2.6-1.8c-10.5-3-21.1-5.6-31.5-8.8
			c-16.5-5-30.7-14.4-45.2-23.4c-5.8-3.6-11.8-7.2-17.5-10.9c-1.6-1.1-3.9-2.7-4-4.2c-0.2-2.9,0.2-6.4,1.8-8.5
			c1.2-1.5,4.9-2.3,7.1-1.7c3.5,1,6.7,3.3,10,5c10.7,5.6,21.6,10.7,32.1,16.7c16.7,9.5,35,14.8,53.3,19.8c4.3,1.2,9.5,0.3,14-0.7
			c4.6-1,8.3-7.4,8-12.5c-0.3-5.1-3-9.1-7.8-10.6c-12-3.9-24.1-7.1-36.1-10.9c-6.5-2.1-13.3-4.1-19-7.8
			c-8.3-5.3-15.7-12.1-23.4-18.3c-1.8-1.4-3.7-3-4.7-4.9C611.9,1096.5,607.8,1088.3,603.5,1079.8z M688.1,1466.8
			c19.8-1,39.3-1.6,58.8-3c8-0.6,16.1-2.1,23.9-4.1c6.4-1.6,12.1-5.1,13-12.7c0.5-4.1,0.7-8.3,0.6-12.4c-0.2-9.2-0.8-18.4-0.8-27.6
			c0-15.5,0.2-31.1,0.3-46.6c0-5.6,0-11.3,0-16.9c0-8.4,0.1-16.8-0.1-25.2c-0.2-9.1-0.2-18.2-0.9-27.2c-0.3-4.4-2.6-9-7.6-9.1
			c-14.5-0.3-29.1-0.1-43.6,0.1c-11.5,0.2-23,0.8-34.5,0.9c-10.6,0.1-21.3-0.3-31.9-0.6c-9.9-0.3-19.8-0.7-29.7-1.1
			c-7.9-0.3-15.9-1-23.8-0.9c-5.9,0.1-8.6,3.4-8.8,9.3c-0.2,5.1,0,10.2-0.1,15.3c-0.3,13.7-0.8,27.3-1.2,41c-0.3,14-0.9,28-0.8,41.9
			c0.1,17.7,0.9,35.4,1.2,53c0.2,11.3,5.5,18.6,16.6,21c6.9,1.5,14,2.8,21,3.2C655.9,1466,672.1,1466.3,688.1,1466.8z M721.2,896.4
			c-1.3-9.3-2.4-17.9-3.8-26.5c-0.6-3.8-2.6-6.6-6.4-8.2c-11.7-4.9-23.9-5.1-36.1-3.3c-6.7,1-12.2,4.3-13,12.1
			c-1.5,15-4.3,29.9-1.9,45c0.9,5.5,2.1,12.2,7.8,14.1c13.7,4.5,27.8,6.2,41.9,1.1c3.8-1.4,6.3-3.9,7-7.7
			C718.4,914.1,719.8,905.1,721.2,896.4z M1222.1,430.1c-0.7-3.8-1.9-10.4-3.2-17.1c-3.5-18.3-9.6-35.9-17.8-52.5
			c-5.7-11.5-13.4-22.1-19.7-33.3c-3.7-6.6-8.5-11.9-15.3-15.1c-2-0.9-4.8-0.1-7.2-0.1c0.3,2.1,0.1,4.5,1,6.2
			c4.5,8.5,10,16.5,13.9,25.3c8,18.3,16.5,36.3,22.7,55.5c7.3,22.7,6.5,45.4,4.4,68.4c-0.2,2.1,0.8,4.2,1.3,6.3
			c1.9-0.9,4.4-1.3,5.6-2.8C1217.3,460.2,1221.3,447.2,1222.1,430.1z M701.2,1028.6c6.6-10.9,3.6-24.7-10.9-29.7
			c-18.8-6.6-37.2-14.1-56-20.7c-9.4-3.3-17.8-3.3-24,4.6c-3.2,4.1-4.7,9.7-6.8,14.7c-1.7,4.2-0.2,6,4.3,6.6
			c6.1,0.8,12.3,1.5,18.2,2.9c9.5,2.3,18.8,5,28.2,7.7C670,1019.2,685.6,1023.9,701.2,1028.6z M484.2,386.9
			c1.3,5.8,2.1,10.3,3.4,14.7c0.4,1.4,2.4,3.1,3.8,3.1c1.8,0.1,4-1,5.4-2.2c1.2-1.1,2-3.1,2.4-4.8c5.8-24.4,15.4-47.4,26.3-69.9
			c3-6.1,6.7-11.8,10-17.7c4-7.2,7.7-14.6,12-21.5c4-6.4,8.9-12.4,13.1-18.7c0.9-1.3,0.6-3.3,0.9-5c-1.7-0.1-3.4-0.6-4.9-0.3
			c-1.3,0.3-2.5,1.5-3.6,2.5c-3.4,3.1-6.7,6.3-10,9.5c-8.4,7.9-16.7,15.8-21.9,26.5c-2.5,5.1-7.1,9.2-9.7,14.3
			c-6.4,13-12.7,26.2-18,39.7C489.4,366.9,487,377.4,484.2,386.9z M750.4,1068.5c1.6-2.1,2.6-3.5,3.7-4.9
			c6.1-8.1,12.3-16.2,18.4-24.4c3.7-4.9,6.7-10.4,11.2-14.4c9.8-8.7,15.6-19.8,20.1-31.5c4.1-10.8-0.2-17.3-11.3-16.3
			c-3.5,0.3-7.1,3.4-10,6c-6.8,6.2-13,13-19.7,19.2c-3,2.7-6.9,4.3-10.1,6.8c-1.3,1-2.4,3-2.4,4.5c-0.3,16.9-0.3,33.9-0.4,50.8
			C749.8,1065.4,750.1,1066.5,750.4,1068.5z M1178.9,484c-1.3-8.6-2-17.5-4.1-25.9c-3.1-12.4-8.8-23.7-15.3-34.7
			c-3.4-5.8-7.4-10.1-13-13c-1.8-1-4.7-0.6-6.8,0.1c-0.8,0.3-1.2,3.6-0.7,5.1c1.6,4.3,3.9,8.3,5.6,12.6c4.1,10,9.3,19.8,11.9,30.2
			c4,15.8,3.6,32.1,1.5,48.3c-0.5,4,2.7,7.5,6.1,6.3c2.8-1,6-2.8,7.4-5.1C1175.9,500.5,1178.9,492.8,1178.9,484z M513.6,453.3
			c2.1,5.7,4.1,11.3,6.5,16.8c0.4,1,3.7,1.9,4.5,1.3c3.2-2.4,6.5-4.8,6.7-9.7c0.4-12,1.1-24,4.9-35.7c2.6-8,4.2-16.2,6.2-24.4
			c1.4-5.9,2.9-11.8,3.9-17.8c0.3-2-0.9-4.3-1.4-6.5c-1.9,0.7-4.1,1-5.6,2.2c-2.7,2.3-5.9,4.7-7.2,7.8c-3.7,8.6-6.7,17.5-9.6,26.4
			c-1.3,4-2,8.3-2.9,12.5C517.5,435,515.6,443.8,513.6,453.3z M741.4,106.6c4.2,0.4,7.2-1.9,8.1-7c0.3-1.6,0.8-3.4,1.8-4.6
			c7.9-9.5,15.8-19,23.8-28.4c6.9-8.2,14.1-16.2,20.9-24.4c0.8-0.9,0.9-3.2,0.3-4.2c-0.7-1-2.9-1.7-4-1.3
			c-7.6,2.7-15.3,5.5-21.1,11.6c-8,8.3-16.5,16.2-23.7,25.1c-5.7,6.9-10.2,14.9-14.4,22.8C730.1,102,733.9,106.8,741.4,106.6z
			 M706.4,949.2c-9.4,0-17.9,0.3-26.4-0.1c-3.7-0.2-4.8,1.1-4.8,4.4c0,3.3,0,6.6,0,9.9c0.1,10.8,0.2,10.7,10.1,14.2
			c2.5,0.9,4.8,2.2,7.3,3.2c3.7,1.5,7.4,3,11.6,4.6C705,972.6,705.7,960.6,706.4,949.2z M1043.5,74.4c-1.7-3.4-2.4-6.4-4.3-8.1
			c-10.6-9.8-22.3-17.9-36.7-21.2c-1.9-0.4-4-0.7-5.8-0.3c-1.6,0.3-3.6,1.3-4.3,2.6c-0.5,0.8,0.8,3.1,1.9,4.1c2.8,2.7,5.6,5.7,9,7.6
			c10,5.4,19,12,26.6,20.5c2.9,3.2,5.9,1.8,8.5,0.3C1040.3,78.7,1041.6,76.4,1043.5,74.4z M869.9,46.6c0-5-3.6-7.2-7.3-4.8
			c-1.7,1.1-3.5,2.6-4.5,4.4c-5.2,9.6-10,19.4-15.1,29c-2.8,5.3-2.3,8.5,2,11.1c4.8,2.9,10.4,1.8,12.6-3.2
			c3.5-8.1,6.6-16.5,9.5-24.9C868.5,54.3,869.1,50.2,869.9,46.6z M573.4,491.3c-0.5,0.1-0.9,0.2-1.4,0.4c1.5,6.3,2.3,12.9,4.8,18.7
			c3.2,7.4,7.8,7.4,11.9,0.7c0.9-1.4,1.4-3.3,1.5-5c0.2-7.4,0.1-14.9,0.1-22.3c0-5.5-3.3-8.6-9.1-8.6c-4.8,0-8.5,4-8.3,9.2
			C573,486.7,573.2,489,573.4,491.3z M1102.7,532.7c0,0,0.2-0.5,0.1-1c-0.7-7.5-0.8-15.2-9.1-18.9c-1.4-0.6-3.8-0.6-4.9,0.2
			c-3.2,2.6-5.4,6.1-3.9,10.4c3.2,9.1,2,18.2,0.1,27.3c-0.3,1.5,0.2,4.1,1.1,4.5c1.2,0.6,3.6,0.1,4.8-0.8
			C1098,549.1,1102.9,542.4,1102.7,532.7z M691.8,53.1c0.8-0.2,2.2-0.3,3.2-1c7.8-6,16-11.5,21-20.4c0.6-1.2,0.7-3.3,0-4.4
			c-0.7-1.1-2.7-2.1-4-2c-2.8,0.4-5.8,1.2-8.3,2.6c-5.7,3.3-11,7.3-16.6,10.7c-3.3,2-6.3,4-5.1,8.5C683.2,52,687.1,52.6,691.8,53.1z
			 M729.9,1053.2c0.6-3.7,1.6-6.9,1.7-10.1c0.1-10.6-0.1-21.2-0.4-31.7c-0.2-6.1-0.5-12.2-1.2-18.2c-0.4-3.2-2.6-4.8-6.1-4.2
			c0,6.4-0.9,12.8,0.2,18.8c2,11.4,0.6,21.6-6.7,30.6C721.5,1043.4,725.6,1048.1,729.9,1053.2z M937.8,89.3
			c8.6-0.1,11.6-4.1,9.4-10.4c-1.3-3.7-3-7.4-5.2-10.5c-3.4-4.6-7.3-8.9-11.3-13c-0.8-0.9-3.2-0.9-4.4-0.4c-0.8,0.3-1.4,2.6-1.1,3.8
			c2.2,8.6,4.4,17.3,7.4,25.6C933.3,86.8,936.7,88.3,937.8,89.3z M676.7,1092c-0.4,0.5-0.9,1-1.3,1.5c1.3,1.9,2.2,4.7,3.9,5.5
			c4.1,1.8,8.6,3,13.1,3.8c5.8,1,6.9-0.6,5.6-5.6C690.6,1095.3,683.6,1093.6,676.7,1092z"/>
		<path class="st0" d="M809,1498c0-12.9,0.2-25.8,0-38.6c-0.1-11.9-0.7-23.8-0.8-35.7c-0.1-11.1,0.2-22.3,0.4-33.4
			c0.2-9.3,0.2-18.6,0.6-27.9c0.3-9.3,1.1-18.6,1.3-27.9c0.2-6.3-0.5-12.6-0.4-18.9c0.1-19.5,0.3-39.1,0.5-58.6
			c0.2-22.9,0.3-45.7,0.6-68.6c0.2-10.2,1.3-20.4,1.2-30.5c-0.1-10.2-0.2-20.7-2.3-30.6c-1.4-6.6-4.8-13.2-10.9-17.9
			c-6.6-5.1-12.3-11.4-18.8-16.8c-4.1-3.4-8.7-6.2-13.1-9.4c-1.4-1-2.7-2.3-3.6-3c6.2-8.1,12-15.8,17.8-23.5
			c7.2-9.6,13.7-19.9,21.8-28.6c8.5-9,12.9-19.9,17.4-30.8c5-12.1-1.3-30.4-12.4-34c-16.7-5.5-23.9-4.4-37.2,7.8
			c-7.6,7-15.2,14.1-23,21.5c-1.9-3.8-2.7-7.8-5.1-10.1c-3.8-3.7-8.4-6.8-13.1-9.3c-6.4-3.3-7.6-5-6.7-12c0.6-4.5-0.2-9.3,0.6-13.7
			c0.6-3.4,2.1-7.1,4.4-9.5c7.7-8.1,9.8-18.1,10.2-28.4c0.7-15,0.6-30-3-44.9c-2.3-9.4-11-17.9-20.2-20.7
			c-16.6-4.9-33.2-3.4-49.8-1.8c-8.6,0.8-17,8.8-19.3,17.6c-0.2,0.9-0.5,1.8-1,3.4c-2.9-1.7-5.4-3.2-7.9-4.7
			c-9.1-5.3-17.7-11.6-27.3-15.7c-12.2-5.2-25.2-9.3-38.8-7.4c-3,0.4-6.5,3.3-8.2,6.1c-5.7,9.1-10.8,18.7-16.1,28.1
			c-0.3,0.5-0.8,0.9-2.1,2.3c0.4-12.7-1.2-24.4,7.5-34.3c5.8-6.5,10.4-14.1,16.1-20.7c3.5-4.1,8.4-7.1,12.1-11
			c9.8-10.5,18.8-21.7,29-31.7c6.3-6.1,14.1-10.7,21.5-15.5c19.5-12.8,42.9-13.8,64.3-20.8c3.9-1.3,8.6-3.4,11.8-2.2
			c3,1.1,4.1,6.6,6.8,9.4c9.1,9.5,17.1,20.3,28.9,27.1c9.8,5.7,19,12.7,28.8,18.4c5.2,3,11.5,4.2,17,7c12.5,6.3,24.8,13.2,38.6,16.2
			c9.8,2.2,19.8,3.5,29.8,4.7c13.2,1.5,26.5,3.1,39.8,3.6c12.4,0.5,24.6-1.6,36.9-4.4c11.2-2.5,21-6.9,30.5-12.7
			c11.4-7,19.9-16.3,22.9-29.8c0.5-2.2,1.4-4.3,2.6-7.8c21.3,17.4,36.7,37.4,43.1,63.8c-1.2,0.8-2.2,1.4-3.1,2.1
			c-4.6,3.7-4.8,7.2-0.8,11.8c11.9,13.8,23.9,27.5,35.6,41.5c4.4,5.3,7.4,11.8,11.9,17.1c11.9,14.4,18.9,31.7,28.9,47.3
			c9.9,15.5,15.7,32.6,18,50.5c1.9,14.7,1.8,29.8,1.9,44.7c0.2,18.2-0.3,36.4-0.4,54.6c0,13.2,0.2,26.4,0.5,39.7
			c0.3,10.8,1.1,21.5,1.3,32.3c0.1,5.6-0.5,11.1-0.5,16.7c0,7.4,0.2,14.8,0.7,22.1c1.3,21.9,2.6,43.7,4,65.5
			c1.3,20.1,2.4,40.3,4.4,60.4c1.5,15.1,4.3,30.1,6.5,45.2c1.8,12,3.2,24,5.6,35.8c2.6,12.9,6.3,25.6,9.3,38.5
			c2.8,11.9,5.3,23.9,7.9,35.9c0.4,1.8,0.9,3.5,1.3,5.3C1047,1498,928,1498,809,1498z M1009.4,1035.9c-2-8-3.5-15.3-5.7-22.3
			c-0.6-1.8-3.4-2.9-5.2-4.4c-1.1,1.9-3,3.6-3.3,5.6c-1.9,10.4-2.3,21.2-5.3,31.1c-4.6,15-10.4,29.6-16.8,43.9
			c-3.6,8-9.6,15-14.3,22.6c-0.8,1.4-1.1,4.2-0.3,5.2c1.1,1.3,3.6,1.8,5.5,1.7c1.6-0.1,3.2-1.6,4.8-2.5
			c12.6-7.3,18.3-20.1,25.1-31.9c3.1-5.3,4.3-11.7,6.2-17.7C1003.2,1056.8,1006.3,1046.2,1009.4,1035.9z"/>
		<path class="st0" d="M1257,1498c-9.4-9.4-18.8-18.7-28.2-28.1c-3.7-3.7-7.2-7.7-11-11.2c-10.8-9.9-22-19.4-32.7-29.5
			c-6.9-6.5-13.3-13.7-19.5-20.9c-1.6-1.9-1.8-5.3-2.2-8c-2.5-18.7-4.8-37.5-7.2-56.2c-1.1-8.7-2.6-17.3-3.6-26
			c-1-8.9-1.6-17.7-2.3-26.6c-1.4-16.8-2.9-33.6-4.1-50.4c-0.4-6.1-0.3-12.2-0.5-18.2c-0.4-14.7-1.2-29.4-1.3-44.1
			c-0.1-14.1,0.4-28.3,0.6-42.4c0-2.6,0-5.2,0.7-8.2c0.9,2.4,1.7,4.8,2.7,7.1c5.5,12.6,10.5,25.4,16.7,37.7
			c6.2,12.4,13.5,24.3,20.4,36.4c5.8,10.2,11.5,20.5,17.6,30.5c6.1,10.2,12.7,20.2,18.9,30.4c3.2,5.3,5.8,11.1,9,16.4
			c4.8,7.9,9.8,15.7,14.8,23.5c5.4,8.5,10.7,17,16.4,25.3c9.6,14.2,19.4,28.4,29.2,42.5c11.5,16.5,23.1,33,34.8,49.4
			c3,4.2,6.9,7.9,10.1,12c7.8,10.3,15.1,20.9,23.1,31c6.6,8.4,13.9,16.3,21,24.4c1.1,1.2,2.4,2.1,3.7,3.2
			C1341.7,1498,1299.3,1498,1257,1498z"/>
		<path class="st0" d="M1392,1498c7-5.1,7.1-9.4,1.3-16.3c-4.6-5.4-8.7-11.2-12.9-16.9c-0.6-0.8-0.5-2.2-0.3-3.3
			c3.9-19.3,4.2-38.8,3.4-58.3c-0.5-11.8-3.2-23.6-4.8-35.4c-0.7-5.5-1.1-11-1.7-16.4c0.6-0.2,1.3-0.4,1.9-0.6
			c1.4,2.9,3.4,5.7,4.1,8.8c3.1,13.2,5.4,26.6,8.7,39.7c2.5,9.9,5.9,19.7,9.5,29.2c0.7,2,4.2,4.1,6.4,4.1c3.8,0.1,8.4-0.2,9.8-5.1
			c2.1-8,4.2-15.9,5.8-24c2.1-11,3.5-22.1,5.4-33.2c1.9-10.8,3.6-21.8,6.2-32.4c2.2-9.1,5.3-18.1,8.7-26.9c0.7-1.8,4-2.7,6.1-4
			c1,1.7,2.6,3.3,2.8,5.1c1.7,11.8,0.4,23.4-1.7,35.1c-2.3,12.7-3.8,25.5-5.6,38.3c-1.2,8-2.9,15.9-3.6,23.9
			c-0.7,8.1-0.9,16.4-0.3,24.6c0.6,7,7.8,9.8,12.8,5c4.2-4,7.8-9.1,10.2-14.4c4.6-10.3,8-21.1,12.3-31.5c3.4-8.4,7.4-16.6,11-25
			c3.4-8.1,6.7-16.2,9.9-24.3c3.2-8,6.4-16,9.6-23.9c0.1-0.2,0-0.4,0.2-0.5c2.8-2.3,5.5-4.6,8.3-6.9c0.5,3.2,2.1,6.8,1.3,9.7
			c-4.2,15.8-9,31.4-13.5,47c-1.8,6-3.4,12.1-5.4,18c-4,11.4-8.4,22.6-12.3,34.1c-2.7,8.1-5.6,16.4-6.7,24.8
			c-0.6,4.2-2.2,9.9,2.5,13.8c3.8,3.1,11.1,2,15.6-2.4c19.6-18.8,36.4-40,53.2-61.2c3.9-4.9,8.8-8.9,13.2-13.3
			c2.3-2.3,4.4-4.7,6.9-6.8c2.8-2.3,4.5-1.2,4.9,2.3c1,8.9-3.5,16.3-7.1,23.8c-5.2,11.1-12.8,20.7-20.9,29.9
			c-5.1,5.9-8.6,13.2-12.9,19.8c-5.2,8.1-10.8,15.9-15,24.8c-2.9,6.2-7,12.1-9.6,18.7c-0.4,0.9-0.3,1.9-0.5,2.8
			C1470,1498,1431,1498,1392,1498z"/>
		<path class="st0" d="M616.7,334.7c0.9,2.3,1.9,4.1,2.1,6c1.4,9.5,8.5,16,20.2,18c5.4,0.9,15.9-5.2,18.3-11.7
			c3.2-8.6,5.8-17.5,7.9-26.5c3.2-14.3,5.9-28.6,8.5-43c1.7-9.1,2.2-18.4,4.5-27.3c2.6-10.1,2.4-21.1,8.9-30.1
			c0.9-1.3,2.3-2.4,3.7-3.2c8.1-4.6,16.4-9.1,24.5-13.8c6.4-3.7,9.6-9.4,10-16.7c0.5-7.5,2.4-13.9,10.9-16.2
			c4.8-1.3,9.2-3.7,13.9-5.4c5.5-1.9,10.6-2.1,16.2,0.8c9.2,4.7,22.5,0.4,28.7-7.8c2.7-3.6,5.9-6.8,9.2-9.7c2.8-2.5,4.2-0.2,4.7,2.4
			c0.6,3.2,0.9,6.6,1.3,9.8c0.9,6.4,5.6,10,12.1,9.3c18.6-2,33.5-10.6,45.2-25c4.5-5.5,9.1-10.8,13.9-16.5c2.8,4.1,5.5,8.7,8.8,12.8
			c4.4,5.3,9.3,10.2,13.9,15.4c1.8,2.1,3.8,4.1,5.1,6.5c4.7,8.3,21.3,15.9,30.9,15.5c6.9-0.3,12.6-1.8,17.3-6.7
			c3.3-3.4,7.1-2.8,10.5-1c9.1,4.7,18.4,9.1,26.8,14.9c5.1,3.6,8.3,9.8,12.9,14.3c11.2,11,20.6,23.1,27.4,37.3
			c5.8,12.3,7.6,25.7,9.9,39c2.4,13.8,5.5,27.5,7.8,41.3c2.3,13.6,4.2,27.4,5.9,41.1c1.8,14.6,3.8,29.1,4.4,43.8
			c0.8,18-1.3,36-3.3,54c-1.9,17.3-6.7,33.8-11.5,50.2c-4.8,16.7-11.9,32.7-21.6,47.1c-9.2,13.7-18.8,27.1-29.5,39.6
			c-11.5,13.5-25.2,24.9-40.2,34.4c-4.6,2.9-9.2,5.9-14,8.3c-10.6,5.2-13.9,15.2-15.9,25.2c-2.9,14.4-5,29-5.9,43.7
			c-0.7,10.3,6.2,18.1,13.8,24.2c7.7,6.2,16.1,11.7,24.1,17.4c0.5,0.4,1,0.9,1.6,1.2c4.4,2.3,10.7,2.9,10.5,9.6
			c-0.1,5-1,10.2-2.4,15.1c-4.3,15.4-17.5,20.5-30.5,25.8c-20.8,8.5-42.2,6.5-63.9,4.7c-16.3-1.4-32-5.4-47.7-9.2
			c-7.5-1.8-14.5-5.4-21.7-8.5c-10.5-4.5-21.2-8.6-31.1-14.3c-9.8-5.6-18.9-12.7-27.9-19.7c-6.1-4.7-11.4-10.4-17.1-15.6
			c-3.8-3.5-3.9-7.6,0.4-8.9c11.4-3.6,18.8-12,26.4-20.4c11.2-12.6,17.4-27.5,20.8-43.9c1.9-9.1,2.6-18.1,0.5-27
			c-2.4-10.4-7.2-19-17.2-24.9c-8.3-4.9-15.3-12.1-23.3-17.5c-10.6-7.1-19.2-16.3-27.2-25.8c-13.4-15.9-25.3-33-32.4-52.9
			c-2.8-7.9-6.6-15.6-8.7-23.7c-3-11.3-10.1-17.3-20.7-21.3c-8.4-3.2-16.1-8.2-23.9-12.8c-15.6-9.3-24-24.2-29.6-40.7
			c-4.1-12.1-4.5-24.7-2.7-37.3c1.4-9.9,3.8-19.4,8.8-28.3C603.8,343.1,609.1,338.2,616.7,334.7z M976.9,353.9
			c5.2-1,10.5-1.6,15.5-2.9c7.3-2,10.4-8.1,8.1-15.3c-1.2-3.7-0.4-5,3.5-6.2c5.1-1.5,10.1-4.1,14.4-7.2c4-2.9,4.2-8.9,1.8-12.7
			c-2.7-4.3-6.5-3.5-10.6-2.8c-5.1,0.9-7,4.6-8.6,8.7c-0.9,2.2-1.5,4.5-2.6,6.5c-1.1,2-2.6,2.6-4.8,0.6c-3.4-3-7.1-5.8-10.9-8.3
			c-13.3-8.5-24.9-4-34.5,5.4c-9.2,9.1-7.5,21.2,3.6,27.9C959.5,352.1,968,353.2,976.9,353.9z M742.5,330.7
			c-0.9,2.9-1.9,5.2-2.3,7.6c-0.8,4.3-0.4,8.6,3.7,11.1c2.8,1.7,6,3.1,9.2,3.6c11.3,2,22.3,0.6,33.3-2.8c8.1-2.6,11.4-8.2,12.7-15.5
			c1-5.3-4.9-16.2-9.8-18.5c-8.9-4.1-18-6.6-27.9-2.7c-5.8,2.3-11.3,4.5-14.2,12.6c-2.4-3.9-3.9-6.1-5.1-8.5
			c-1.2-2.2-1.8-4.7-3.2-6.7c-2.6-3.6-6.5-5.9-10.7-4.6c-2.6,0.8-5.6,3.4-6.4,5.8c-0.8,2.5,0.1,6.2,1.5,8.7
			C727.3,328.1,735,328.9,742.5,330.7z M763.2,234.2c-3.7,0.9-10.2,1.8-16.1,4.2c-5.3,2.1-10.4,5.3-15,8.8c-4.4,3.3-8.4,7.3-12,11.5
			c-1.1,1.3-1.2,5.2-0.2,6.2c1.4,1.3,4.5,1.5,6.6,0.9c6.1-1.6,11.8-4.4,17.9-5.8c19.3-4.6,38.8-6.8,58.5-2.2
			c2.9,0.7,6.4,1.2,7.4-2.8c1.1-4-1.5-6.1-4.9-7.4c-2.5-0.9-4.9-1.9-7.3-3C788,239.6,777.6,235.1,763.2,234.2z M932.7,252.9
			c1,5.2,4.4,5,7.6,4.6c12.6-1.9,25.4-3.9,38-1.4c12.9,2.5,25.7,6.2,38.5,9.1c2.1,0.5,4.5-0.1,6.7-0.2c-0.3-2.6,0-5.4-0.9-7.7
			c-2.4-6.3-8.2-9.2-13.6-12.4c-9.2-5.4-18.3-10.9-29.5-10.4c-16.4,0.7-30.4,8.6-44.7,15.4C933.8,250.4,933.3,252,932.7,252.9z
			 M913.6,514.8c1.4-1,4.4-2.1,4.6-3.5c0.3-2.4-0.3-6-2-7.4c-3.2-2.7-7.2-4.9-11.3-6c-21.1-6.1-42.3-5.6-63.3,0.4
			c-4.8,1.4-9.4,4.1-13.5,7.1c-4.3,3.1-3.9,6.8,1,8.5c3.8,1.4,8.3,1.7,12.4,1.3c5.6-0.6,11-2.5,16.5-3.7c11.9-2.5,23.8-4.8,35.9-2
			C900.3,510.7,906.4,512.7,913.6,514.8z M877.7,661.1c4.8-1.1,12.6-2.2,19.8-4.9c4-1.5,7.5-5.4,10.1-8.9c2.2-2.9,0.1-5.6-3.6-5.3
			c-2.8,0.2-5.6,0.9-8.2,1.7c-16.4,5.3-32.7,4.7-48.7-1.5c-5.7-2.2-11.2-4.9-16.9-7.1c-2.6-1-5.6-2-7.5,1.3c-2,3.4,0.9,5.2,2.8,7.1
			C839.2,656.9,856.6,660.3,877.7,661.1z M894.3,385c-6.4,0.1-10.9,6.9-8,12c4.6,8.1,10.8,15.1,18.9,20c1.4,0.9,4.3,1.2,5.4,0.4
			c1.2-0.9,1.8-3.6,1.5-5.4c-1.5-10.8-8.3-18.6-15.4-26.1C895.9,385.2,894.6,385.1,894.3,385z M862.8,434.2c0.5-3.5-1-6.1-5.3-6.3
			c-4.7-0.2-9.1,4.5-9.3,9.7c-0.2,4.5,3.1,8.7,6.7,8.7C859.1,446.3,862.6,441.1,862.8,434.2z M897.2,438.6c0.1-5.6-4-10.8-8.9-10.6
			c-4.1,0.2-5.2,3.3-5.2,7c0,5.7,3.8,10.9,7.9,10.9C894.9,446,897.2,443.3,897.2,438.6z"/>
		<path class="st0" d="M656.1,967.5c-2.1-0.9-4-1.8-6-2.5c-14-5.2-28.2-6.7-42.5-1c-2.5,1-4.5,3.2-6.7,5
			c-8.4,7.1-11.5,16.8-12.7,27.2c-0.6,4.7-1.7,7.6-6.8,9.4c-12.8,4.6-22.1,13.3-28.3,25.7c-1.9,3.7-6.6,6.3-10.4,8.8
			c-5.3,3.6-11,6.5-16.3,10c-1.3,0.9-2.8,3.6-2.3,4.6c0.8,1.6,3.2,3.4,4.8,3.3c6.2-0.7,12.3-2.2,19.2-3.5c0.1,2.4,0.4,4.9,0.3,7.4
			c-1,26.5-2.3,53.1-3.1,79.6c-0.3,8.8-0.6,17.8,1,26.4c1.8,9.6,7.6,17.5,15.3,23.8c4.7,3.9,9.7,7.5,14.4,11.4
			c1.1,0.9,2,2.7,2.1,4.1c0.2,5.5,0,11,0.1,16.5c0.1,3.5-1.9,5-4.7,6.1c-9.2,3.6-18.3,1.5-27.4,0c-4.4-0.7-8.9-1.3-13-2.9
			c-6.4-2.6-12.7-5.5-18.6-9.1c-8-5-15.9-10.2-22.9-16.3c-7.3-6.4-13.7-13.9-17.2-23.3c-2.2-5.9-5.3-11.5-6.7-17.5
			c-1.6-7.4-4.1-14.8-1.9-22.8c1.3-4.6,0.9-9.5,1.9-14.2c2.3-11,4.8-21.9,7.4-32.8c1.5-6.6,2.9-13.2,5-19.6
			c3.1-9.2,6.9-18.2,10.1-27.4c3.5-10.1,6.4-20.4,9.9-30.5c1.7-5,4.1-9.7,6.3-14.5c3.7-7.9,7.5-15.8,11.2-23.7
			c6.5-13.9,13-27.8,19.4-41.8c4.7-10.2,9.5-20.4,14.1-30.6c5.9-13,11.8-26.1,17.7-39.1c0.4-0.9,0.8-1.8,1.2-2.7
			c5.2-10.7,8.9-12.5,19.8-8c11,4.6,22,9.4,32.4,15.2c7.3,4.1,13.7,10.1,20.3,15.5c0.9,0.7,0.9,3,0.8,4.4c-1.3,16.9,0.4,33.4,7.4,49
			c0.5,1.2,1.1,2.8,2.1,3.3c7.5,4,4.9,10.6,4.5,16.7C657.2,960.4,656.7,963.5,656.1,967.5z"/>
		<path class="st1" d="M595.4,1213.6c11,3.1,21.6,6.1,32.3,9c11.8,3.3,23.8,4.8,36,3.7c14.6-1.2,26.4-7.5,33.9-20.4
			c1.8-3.1,3-7.2,2.9-10.8c-0.4-8.3,6.2-9.2,11.1-12.1c3.2-1.9,6.4-4,9.1-6.5c7.2-7,7.6-16.1,6.2-25.1c-1.5-10.2-9.3-15.9-17.7-19.4
			c-11.2-4.7-23.2-7.7-34.8-11.4c-11-3.5-20.9-8.6-30-16c-6.7-5.4-11.6-11.4-15.8-19.8c3.7,0.2,6.9,0.2,10,0.6
			c4.6,0.5,9.2,1,13.7,2.2c1.7,0.4,3.6,2.3,4.3,4c1,2.4,1.2,5.2,1.2,7.8c0.1,8.9,5.3,14,13.7,16.8c10.5,3.5,21.4,6.5,32.2,3
			c9.7-3.1,16.6-8.1,13-19.7c3.5-2.5,7.3-4.5,10.1-7.5c2.8-3.1,4.6-7.2,7.2-11.6c6.6,5.8,12.9,11.7,19.5,17.1
			c6.9,5.6,14.2,10.9,21.5,16c9,6.3,15.6,14.4,16.7,25.4c1.3,13.5,1.6,27.1,1.6,40.6c0,11.4-1.3,22.9-1.7,34.3
			c-0.3,9.1-0.1,18.3,0,27.4c0.1,3.8-1.9,5.6-5.3,6c-9.2,1.2-18.4,2.3-27.7,3.2c-7.6,0.7-15.2,1.4-22.9,1.4
			c-18.2-0.1-36.4-0.4-54.6-0.9c-19.4-0.5-38.9-1.1-58.3-2.1c-7.9-0.4-15.8-1.8-23.7-3.1c-1.3-0.2-3.4-2.2-3.4-3.4
			C595.3,1232.5,595.4,1222.8,595.4,1213.6z"/>
		<path class="st0" d="M603.5,1079.8c4.3,8.4,8.3,16.7,12.7,24.8c1,1.9,3,3.5,4.7,4.9c7.7,6.2,15.1,13,23.4,18.3
			c5.7,3.6,12.5,5.7,19,7.8c12,3.9,24.1,7.1,36.1,10.9c4.8,1.6,7.5,5.5,7.8,10.6c0.3,5.1-3.5,11.5-8,12.5c-4.5,1-9.7,1.9-14,0.7
			c-18.3-5-36.6-10.3-53.3-19.8c-10.5-6-21.4-11.2-32.1-16.7c-3.3-1.7-6.4-4.1-10-5c-2.2-0.6-5.9,0.1-7.1,1.7
			c-1.6,2.2-2,5.7-1.8,8.5c0.1,1.5,2.4,3.1,4,4.2c5.8,3.8,11.7,7.3,17.5,10.9c14.4,9,28.7,18.5,45.2,23.4c10.4,3.2,21,5.8,31.5,8.8
			c1,0.3,2.2,1,2.6,1.8c2.1,5-1.5,12.9-6.1,15.6c-7.3,4.3-15,5.1-23,3.8c-11.9-1.9-24.1-3.4-35.5-7.1c-10.9-3.5-21-9.5-31.3-14.8
			c-4.3-2.2-8.4-5.1-12.3-8c-5.7-4.3-7.5-10.6-7.5-17.5c-0.1-15.6-0.3-31.3,0-46.9c0.3-18.4,0.9-36.8,1.8-55.1
			c0.4-7.6,1.2-15.3,3-22.6c2.6-10,9.1-14.1,19.3-14.5c17.6-0.9,34.4,1.9,51,7.8c16.3,5.8,33,10.7,49.5,15.9
			c12.1,3.8,20.5,11.2,23.6,23.8c1.8,7.2-3,12.6-10.1,11.2c-9.5-1.9-18.9-4.5-28.4-6.8c-14.5-3.5-29.1-5.5-44.1-5.9
			c-9.7-0.3-19.4-2.1-29.1-2.6c-4.7-0.2-10.1-1.9-14.2,1.9c-1.5,1.4-2.7,4.2-2.6,6.2c0.1,1.8,2,4.6,3.6,5.1
			C594,1078.9,598.8,1079.2,603.5,1079.8z"/>
		<path class="st0" d="M688.1,1466.8c-15.9-0.6-32.1-0.9-48.3-1.8c-7.1-0.4-14.1-1.6-21-3.2c-11.1-2.4-16.3-9.7-16.6-21
			c-0.3-17.7-1.1-35.4-1.2-53c-0.1-14,0.4-28,0.8-41.9c0.3-13.7,0.8-27.3,1.2-41c0.1-5.1-0.1-10.2,0.1-15.3c0.2-5.8,2.9-9.1,8.8-9.3
			c7.9-0.2,15.9,0.5,23.8,0.9c9.9,0.4,19.8,0.8,29.7,1.1c10.6,0.3,21.3,0.7,31.9,0.6c11.5-0.1,23-0.7,34.5-0.9
			c14.5-0.2,29.1-0.5,43.6-0.1c5.1,0.1,7.3,4.7,7.6,9.1c0.7,9.1,0.8,18.2,0.9,27.2c0.1,8.4,0.1,16.8,0.1,25.2c0,5.6,0,11.3,0,16.9
			c-0.1,15.5-0.4,31.1-0.3,46.6c0,9.2,0.6,18.4,0.8,27.6c0.1,4.1-0.1,8.3-0.6,12.4c-0.9,7.6-6.5,11.1-13,12.7
			c-7.8,2-15.9,3.5-23.9,4.1C727.4,1465.2,707.8,1465.9,688.1,1466.8z M764.7,1298c-1.6-0.2-2.4-0.4-3.2-0.3
			c-17.7,1.1-35.4,2.3-53.1,3.2c-6.9,0.4-13.9,0.2-20.8,0c-20.3-0.6-40.6-1.2-60.9-2c-4.2-0.2-6,0.6-5.8,5.3
			c0.5,12.8,0.7,25.6,0.6,38.4c-0.2,13.7-1.1,27.4-1.3,41.1c-0.2,15.4-0.2,30.8,0.1,46.3c0.3,13.4,0.5,13.4,13.4,15.7
			c0.5,0.1,1,0.1,1.5,0.1c15.5,0.5,31.1,1.4,46.6,1.3c25.9-0.3,51.8-1.3,77.6-2.2c2-0.1,5-2.3,5.6-4.1c1.1-3.7,1.2-7.9,1.2-11.8
			c-0.1-16.4-0.3-32.7-0.5-49.1c-0.1-7.6,0-15.1-0.1-22.7c-0.2-10.4-0.6-20.8-0.8-31.2C764.6,1316.9,764.7,1307.6,764.7,1298z"/>
		<path class="st0" d="M721.2,896.4c-1.4,8.6-2.8,17.6-4.4,26.5c-0.7,3.8-3.2,6.4-7,7.7c-14.1,5.1-28.2,3.4-41.9-1.1
			c-5.7-1.9-7-8.5-7.8-14.1c-2.4-15.1,0.4-30,1.9-45c0.8-7.9,6.3-11.2,13-12.1c12.2-1.7,24.4-1.6,36.1,3.3c3.8,1.6,5.8,4.4,6.4,8.2
			C718.7,878.5,719.9,887.2,721.2,896.4z M698.5,892.8c0.1-4.2-3.7-8-8.2-8.2c-5.2-0.2-8.5,2.8-8.6,8c-0.1,4.6,3,8,7.4,8.2
			C694.7,900.9,698.4,897.7,698.5,892.8z"/>
		<path class="st0" d="M1222.1,430.1c-0.9,17.1-4.9,30.1-14.3,40.9c-1.3,1.5-3.7,1.9-5.6,2.8c-0.4-2.1-1.4-4.3-1.3-6.3
			c2.1-23,2.9-45.6-4.4-68.4c-6.2-19.2-14.7-37.2-22.7-55.5c-3.8-8.8-9.4-16.8-13.9-25.3c-0.9-1.8-0.7-4.1-1-6.2
			c2.4,0,5.2-0.9,7.2,0.1c6.7,3.2,11.5,8.5,15.3,15.1c6.3,11.2,14,21.8,19.7,33.3c8.2,16.6,14.3,34.1,17.8,52.5
			C1220.2,419.7,1221.4,426.3,1222.1,430.1z"/>
		<path class="st0" d="M701.2,1028.6c-15.7-4.6-31.3-9.3-47-13.9c-9.3-2.7-18.7-5.5-28.2-7.7c-6-1.4-12.1-2.2-18.2-2.9
			c-4.5-0.6-6-2.4-4.3-6.6c2-5,3.5-10.6,6.8-14.7c6.2-7.9,14.6-7.9,24-4.6c18.8,6.7,37.2,14.1,56,20.7
			C704.8,1003.9,707.8,1017.6,701.2,1028.6z"/>
		<path class="st0" d="M484.2,386.9c2.8-9.5,5.2-20,9.2-29.9c5.3-13.5,11.6-26.6,18-39.7c2.5-5.1,7.1-9.2,9.7-14.3
			c5.3-10.6,13.6-18.5,21.9-26.5c3.3-3.2,6.6-6.4,10-9.5c1.1-1,2.3-2.1,3.6-2.5c1.5-0.4,3.3,0.1,4.9,0.3c-0.3,1.7,0,3.7-0.9,5
			c-4.2,6.3-9.1,12.2-13.1,18.7c-4.3,7-8,14.4-12,21.5c-3.3,5.9-7,11.6-10,17.7c-11,22.4-20.6,45.4-26.3,69.9
			c-0.4,1.7-1.1,3.7-2.4,4.8c-1.4,1.3-3.6,2.3-5.4,2.2c-1.3,0-3.3-1.7-3.8-3.1C486.2,397.3,485.5,392.7,484.2,386.9z"/>
		<path class="st0" d="M750.4,1068.5c-0.3-2-0.6-3-0.6-4.1c0.1-16.9,0.1-33.9,0.4-50.8c0-1.5,1.2-3.5,2.4-4.5
			c3.2-2.5,7.2-4.1,10.1-6.8c6.8-6.2,13-13,19.7-19.2c2.9-2.6,6.5-5.7,10-6c11.1-1,15.5,5.5,11.3,16.3
			c-4.5,11.6-10.3,22.8-20.1,31.5c-4.5,4-7.5,9.5-11.2,14.4c-6.1,8.1-12.3,16.2-18.4,24.4C753,1065,752,1066.3,750.4,1068.5z"/>
		<path class="st0" d="M1178.9,484c0,8.8-3,16.6-7.2,23.8c-1.4,2.4-4.6,4.2-7.4,5.1c-3.4,1.2-6.6-2.2-6.1-6.3
			c2.1-16.2,2.5-32.5-1.5-48.3c-2.6-10.4-7.8-20.2-11.9-30.2c-1.8-4.2-4.1-8.3-5.6-12.6c-0.6-1.5-0.1-4.9,0.7-5.1
			c2-0.7,5-1.1,6.8-0.1c5.6,2.9,9.6,7.3,13,13c6.5,11.1,12.2,22.4,15.3,34.7C1176.9,466.5,1177.6,475.3,1178.9,484z"/>
		<path class="st0" d="M513.6,453.3c2-9.5,3.9-18.3,5.8-27.1c0.9-4.2,1.6-8.5,2.9-12.5c3-8.9,5.9-17.8,9.6-26.4
			c1.3-3.1,4.5-5.5,7.2-7.8c1.4-1.2,3.7-1.5,5.6-2.2c0.5,2.2,1.7,4.4,1.4,6.5c-1,6-2.5,11.9-3.9,17.8c-2,8.2-3.6,16.4-6.2,24.4
			c-3.7,11.7-4.5,23.7-4.9,35.7c-0.2,5-3.4,7.3-6.7,9.7c-0.8,0.6-4-0.3-4.5-1.3C517.6,464.6,515.7,459,513.6,453.3z"/>
		<path class="st0" d="M741.4,106.6c-7.5,0.3-11.3-4.6-8.2-10.4c4.2-8,8.8-15.9,14.4-22.8c7.3-8.9,15.7-16.8,23.7-25.1
			c5.8-6.1,13.4-8.9,21.1-11.6c1.1-0.4,3.3,0.4,4,1.3c0.6,0.9,0.5,3.3-0.3,4.2c-6.9,8.2-14,16.2-20.9,24.4c-8,9.4-16,18.9-23.8,28.4
			c-1,1.2-1.5,3-1.8,4.6C748.6,104.7,745.6,107,741.4,106.6z"/>
		<path class="st0" d="M706.4,949.2c-0.7,11.3-1.4,23.3-2.2,36.2c-4.1-1.6-7.9-3.1-11.6-4.6c-2.5-1-4.8-2.3-7.3-3.2
			c-10-3.5-10-3.4-10.1-14.2c0-3.3,0-6.6,0-9.9c0-3.2,1.1-4.6,4.8-4.4C688.5,949.5,697,949.2,706.4,949.2z"/>
		<path class="st0" d="M1043.5,74.4c-1.9,2.1-3.2,4.4-5.1,5.5c-2.6,1.5-5.7,3-8.5-0.3c-7.6-8.5-16.6-15.1-26.6-20.5
			c-3.4-1.8-6.2-4.8-9-7.6c-1.1-1-2.3-3.3-1.9-4.1c0.7-1.3,2.7-2.3,4.3-2.6c1.8-0.4,3.9-0.1,5.8,0.3c14.4,3.2,26.1,11.3,36.7,21.2
			C1041,68,1041.7,71,1043.5,74.4z"/>
		<path class="st0" d="M869.9,46.6c-0.8,3.6-1.4,7.7-2.8,11.6c-2.9,8.4-5.9,16.8-9.5,24.9c-2.2,5-7.7,6.1-12.6,3.2
			c-4.3-2.6-4.8-5.8-2-11.1c5.1-9.6,9.9-19.4,15.1-29c0.9-1.8,2.7-3.2,4.5-4.4C866.3,39.5,869.9,41.7,869.9,46.6z"/>
		<path class="st0" d="M573.4,491.3c-0.2-2.3-0.4-4.6-0.5-6.9c-0.2-5.2,3.5-9.2,8.3-9.2c5.8,0,9.1,3.1,9.1,8.6
			c0,7.4,0.1,14.9-0.1,22.3c0,1.7-0.6,3.6-1.5,5c-4.1,6.7-8.7,6.7-11.9-0.7c-2.5-5.8-3.3-12.4-4.8-18.7
			C572.4,491.6,572.9,491.5,573.4,491.3z"/>
		<path class="st0" d="M1102.7,532.7c0.2,9.8-4.6,16.4-11.6,21.8c-1.2,0.9-3.6,1.4-4.8,0.8c-0.9-0.4-1.4-3.1-1.1-4.5
			c1.9-9.1,3-18.2-0.1-27.3c-1.5-4.3,0.6-7.9,3.9-10.4c1-0.8,3.5-0.8,4.9-0.2c8.3,3.7,8.4,11.5,9.1,18.9
			C1102.9,532.1,1102.7,532.6,1102.7,532.7z"/>
		<path class="st0" d="M691.8,53.1c-4.7-0.5-8.6-1.1-9.8-5.9c-1.2-4.5,1.8-6.5,5.1-8.5c5.6-3.4,10.9-7.4,16.6-10.7
			c2.5-1.4,5.5-2.2,8.3-2.6c1.3-0.2,3.3,0.8,4,2c0.7,1,0.6,3.2,0,4.4c-4.9,8.9-13.2,14.4-21,20.4C694,52.8,692.5,52.9,691.8,53.1z"
			/>
		<path class="st0" d="M729.9,1053.2c-4.3-5.1-8.4-9.8-12.6-14.8c7.3-9,8.7-19.2,6.7-30.6c-1.1-6-0.2-12.4-0.2-18.8
			c3.5-0.7,5.7,1,6.1,4.2c0.7,6,1.1,12.1,1.2,18.2c0.3,10.6,0.5,21.2,0.4,31.7C731.5,1046.3,730.5,1049.5,729.9,1053.2z"/>
		<path class="st0" d="M937.8,89.3c-1.1-1-4.5-2.6-5.3-5c-3-8.4-5.1-17-7.4-25.6c-0.3-1.2,0.3-3.4,1.1-3.8c1.2-0.5,3.6-0.4,4.4,0.4
			c4,4.1,7.9,8.4,11.3,13c2.3,3.1,4,6.8,5.2,10.5C949.4,85.3,946.4,89.2,937.8,89.3z"/>
		<path class="st0" d="M676.7,1092c6.9,1.6,13.9,3.3,21.3,5.1c1.4,5,0.3,6.6-5.6,5.6c-4.5-0.8-9-2-13.1-3.8
			c-1.8-0.8-2.7-3.6-3.9-5.5C675.8,1093,676.2,1092.5,676.7,1092z"/>
		<path d="M1009.4,1035.9c-3.1,10.3-6.2,20.9-9.5,31.4c-1.9,6-3.1,12.4-6.2,17.7c-6.8,11.8-12.5,24.6-25.1,31.9
			c-1.6,0.9-3.1,2.4-4.8,2.5c-1.8,0.1-4.3-0.5-5.5-1.7c-0.8-0.9-0.5-3.8,0.3-5.2c4.7-7.6,10.7-14.6,14.3-22.6
			c6.4-14.3,12.2-29,16.8-43.9c3.1-10,3.4-20.8,5.3-31.1c0.4-2,2.2-3.7,3.3-5.6c1.8,1.4,4.7,2.5,5.2,4.4
			C1005.9,1020.7,1007.4,1027.9,1009.4,1035.9z"/>
		<path d="M976.9,353.9c-8.9-0.7-17.3-1.8-25-6.4c-11.1-6.7-12.8-18.8-3.6-27.9c9.6-9.4,21.2-13.9,34.5-5.4
			c3.8,2.5,7.5,5.2,10.9,8.3c2.2,2,3.7,1.3,4.8-0.6c1.1-2,1.7-4.3,2.6-6.5c1.6-4.1,3.5-7.8,8.6-8.7c4.1-0.7,7.9-1.5,10.6,2.8
			c2.4,3.8,2.1,9.8-1.8,12.7c-4.3,3.2-9.3,5.7-14.4,7.2c-4,1.2-4.7,2.5-3.5,6.2c2.3,7.3-0.9,13.3-8.1,15.3
			C987.4,352.4,982.1,353,976.9,353.9z"/>
		<path d="M742.5,330.7c-7.5-1.8-15.2-2.7-19.2-9.8c-1.4-2.5-2.3-6.2-1.5-8.7c0.8-2.5,3.8-5.1,6.4-5.8c4.3-1.3,8.2,1,10.7,4.6
			c1.4,2,2,4.5,3.2,6.7c1.3,2.4,2.8,4.6,5.1,8.5c2.8-8.1,8.3-10.3,14.2-12.6c9.9-3.9,18.9-1.5,27.9,2.7c4.9,2.3,10.7,13.2,9.8,18.5
			c-1.3,7.3-4.5,12.9-12.7,15.5c-11,3.5-22,4.8-33.3,2.8c-3.2-0.6-6.4-1.9-9.2-3.6c-4.1-2.5-4.5-6.8-3.7-11.1
			C740.6,335.9,741.6,333.6,742.5,330.7z"/>
		<path d="M763.2,234.2c14.3,0.9,24.8,5.4,35.1,10.3c2.4,1.1,4.8,2.1,7.3,3c3.5,1.3,6,3.4,4.9,7.4c-1.1,4-4.6,3.4-7.4,2.8
			c-19.7-4.6-39.2-2.4-58.5,2.2c-6.1,1.5-11.9,4.2-17.9,5.8c-2.1,0.6-5.2,0.3-6.6-0.9c-1.1-1-1-4.9,0.2-6.2c3.6-4.2,7.6-8.2,12-11.5
			c4.6-3.5,9.7-6.7,15-8.8C753.1,236,759.5,235.1,763.2,234.2z"/>
		<path d="M932.7,252.9c0.6-0.9,1.1-2.6,2.2-3.1c14.3-6.8,28.3-14.6,44.7-15.4c11.2-0.5,20.4,5,29.5,10.4
			c5.4,3.2,11.2,6.1,13.6,12.4c0.9,2.3,0.6,5.1,0.9,7.7c-2.2,0.1-4.6,0.7-6.7,0.2c-12.9-2.9-25.6-6.6-38.5-9.1
			c-12.7-2.5-25.4-0.5-38,1.4C937.1,258,933.6,258.1,932.7,252.9z"/>
		<path d="M913.6,514.8c-7.2-2-13.3-4.1-19.6-5.5c-12.1-2.7-24.1-0.5-35.9,2c-5.5,1.2-10.9,3.1-16.5,3.7c-4.1,0.5-8.6,0.1-12.4-1.3
			c-4.9-1.7-5.3-5.5-1-8.5c4.1-2.9,8.7-5.7,13.5-7.1c21-6,42.2-6.4,63.3-0.4c4,1.2,8.1,3.3,11.3,6c1.7,1.4,2.3,5,2,7.4
			C918,512.7,915,513.7,913.6,514.8z"/>
		<path d="M877.7,661.1c-21.1-0.9-38.5-4.2-52.2-17.5c-2-1.9-4.8-3.7-2.8-7.1c1.9-3.3,4.9-2.3,7.5-1.3c5.7,2.2,11.2,4.9,16.9,7.1
			c16,6.1,32.3,6.8,48.7,1.5c2.7-0.9,5.4-1.5,8.2-1.7c3.7-0.3,5.8,2.4,3.6,5.3c-2.7,3.6-6.2,7.4-10.1,8.9
			C890.3,659,882.5,660,877.7,661.1z"/>
		<path d="M894.3,385c0.3,0.1,1.7,0.2,2.4,0.9c7.2,7.5,13.9,15.3,15.4,26.1c0.3,1.8-0.3,4.4-1.5,5.4c-1.1,0.8-4,0.5-5.4-0.4
			c-8.1-4.9-14.3-11.9-18.9-20C883.4,391.9,887.8,385.1,894.3,385z"/>
		<path d="M862.8,434.2c-0.2,6.9-3.6,12.1-7.8,12.1c-3.6,0.1-6.9-4.2-6.7-8.7c0.2-5.2,4.6-9.9,9.3-9.7
			C861.8,428.1,863.2,430.7,862.8,434.2z"/>
		<path d="M897.2,438.6c0,4.7-2.3,7.4-6.1,7.3c-4.2-0.1-7.9-5.3-7.9-10.9c0-3.7,1.1-6.8,5.2-7C893.2,427.8,897.3,433,897.2,438.6z"
			/>
		<path d="M764.7,1298c0,9.6-0.1,18.9,0,28.1c0.2,10.4,0.6,20.8,0.8,31.2c0.1,7.6,0,15.1,0.1,22.7c0.2,16.4,0.4,32.7,0.5,49.1
			c0,4,0,8.1-1.2,11.8c-0.6,1.8-3.6,4-5.6,4.1c-25.9,1-51.7,1.9-77.6,2.2c-15.5,0.2-31.1-0.8-46.6-1.3c-0.5,0-1-0.1-1.5-0.1
			c-12.9-2.3-13.2-2.3-13.4-15.7c-0.3-15.4-0.3-30.8-0.1-46.3c0.2-13.7,1.2-27.4,1.3-41.1c0.2-12.8-0.1-25.6-0.6-38.4
			c-0.2-4.7,1.7-5.5,5.8-5.3c20.3,0.8,40.6,1.5,60.9,2c6.9,0.2,13.9,0.3,20.8,0c17.7-0.9,35.4-2.2,53.1-3.2
			C762.3,1297.6,763.1,1297.8,764.7,1298z M671.7,1401.3c-8.3-0.1-11.7,3.8-10.9,10.4c0.3,2.1,0.3,4.3,0.7,6.4
			c1.2,6.8,6.7,9.4,12.7,6c5.5-3.2,6.6-14,1.8-19.5C674.5,1403,672.4,1401.8,671.7,1401.3z M660.2,1364.8c0,1.3-0.2,2.6,0,3.9
			c1.1,7.3,4.8,11,10.2,10.5c3.8-0.4,7.6-3.9,7.7-7.2c0.3-6.6-4-16.6-7.4-17.2c-0.2,0-0.3,0-0.5,0
			C663.9,1354.1,659.6,1358.3,660.2,1364.8z M649.4,1415.7c-0.3-0.2-0.6-0.3-1-0.5c-0.1-1.6-0.2-3.3-0.4-4.9
			c-0.7-5.1-4.8-9.1-8.6-8.5c-5.7,1-8.4,4.7-7.6,10.6c0.2,1.3-0.2,2.7,0.2,4c1.1,3.3,1.5,7.8,3.9,9.5c1.7,1.2,6.7-0.4,9.1-2.3
			C647.3,1422,648,1418.4,649.4,1415.7z M649.5,1369.9c-0.5,0-1-0.1-1.6-0.1c2.6-6.3-1.8-8.7-5.6-11.5c-4-3-9.3-1.3-9.5,3.8
			c-0.2,4.7,0.4,9.4,1.2,14c0.3,1.8,1.8,4.3,3.2,4.8c2.8,0.9,6.3,1.7,8.2-1.8C647.2,1376.1,648.2,1372.9,649.5,1369.9z
			 M689.7,1327.4c0.3,1.5,0.8,3.8,1.2,6.1c0.9,5.7,4.1,8.4,8.8,7.5c5-1,7.7-5,6.6-10.3c-0.6-3.2-1.7-6.3-2.4-9.5
			c-0.8-3.8-3.5-4.5-6.8-4.4C692.2,1317.1,689.7,1320.4,689.7,1327.4z M756.4,1364.9c1.3-5.2-7.4-9.9-11-8.3
			c-3.9,1.7-5.3,4.5-5.5,8.5c-0.3,4.7-0.9,9.5,3.1,12.9c3.4,2.9,11.6,0,12.4-4.3C756,1370.8,756.1,1367.8,756.4,1364.9z M704.1,1414
			c0.1-0.5,0.4-1.4,0.3-2.1c-0.5-3.8,0.2-8.4-4.8-9.8c-6.3-1.7-10.1,0-11.8,6.2c-0.8,2.8,0.2,6.4,1.1,9.5c1.6,5.8,4,6.8,9.9,5.6
			C704.1,1422.2,704.6,1418.6,704.1,1414z M730.8,1369.4c0-4.4-4.4-10.9-7.4-11.2c-4.2-0.4-8.9,2.8-9.1,7.3c-0.2,4.3,0.7,8.9,2,13.1
			c0.9,3.1,7,4.9,8.8,2.8C728.2,1378.1,732.1,1374.8,730.8,1369.4z M669.2,1317.1c-4.5-0.3-7.9,0.6-9,5.1
			c-1.2,4.7,2.1,14.1,5.5,15.5c1.6,0.7,3.6,1.5,5.2,1.2c4.2-0.6,8-5.8,7.7-9.7C678,1322.3,673.8,1317.2,669.2,1317.1z M631.6,1324.7
			c0.8,4,1.1,8.2,2.5,12c0.6,1.7,3.8,3.7,5.5,3.5c5-0.8,9.5-4,8.7-9.9c-0.4-3.1-2.1-6.1-3.1-9.2c-1.4-4.1-4.6-4.4-8-3.6
			C633.6,1318.4,631.5,1320.6,631.6,1324.7z M703.9,1370.2c-0.1-8.2-0.8-9.9-4.4-11.2c-4.9-1.8-9.3-0.6-11.2,3
			c-2.3,4.3-0.9,13.5,2.8,15.9c1.8,1.1,4.9,2,6.6,1.2C701.4,1377.3,705.8,1375.2,703.9,1370.2z M721.5,1425.4
			c2.6-1.9,5.3-3.1,6.7-5.2c3.4-4.9,2.2-14.9-4.1-15.8c-3-0.4-7.3,0.8-9.3,2.9c-3.8,4.1-1.6,9.5,0.1,14.1
			C715.5,1423,718.6,1423.7,721.5,1425.4z"/>
		<path d="M698.5,892.8c-0.1,5-3.8,8.1-9.4,7.9c-4.5-0.1-7.6-3.5-7.4-8.2c0.2-5.2,3.4-8.2,8.6-8
			C694.8,884.8,698.6,888.6,698.5,892.8z"/>
		<path class="st0" d="M671.7,1401.3c0.7,0.5,2.8,1.7,4.3,3.3c4.9,5.5,3.8,16.3-1.8,19.5c-6,3.4-11.5,0.8-12.7-6
			c-0.4-2.1-0.4-4.3-0.7-6.4C659.9,1405.2,663.3,1401.2,671.7,1401.3z"/>
		<path class="st0" d="M660.2,1364.8c-0.6-6.5,3.7-10.7,10-10.1c0.2,0,0.3,0,0.5,0c3.4,0.6,7.7,10.6,7.4,17.2
			c-0.1,3.3-3.9,6.9-7.7,7.2c-5.4,0.6-9.1-3.2-10.2-10.5C660,1367.5,660.2,1366.1,660.2,1364.8z"/>
		<path class="st0" d="M649.4,1415.7c-1.4,2.7-2.2,6.3-4.4,8c-2.5,1.8-7.4,3.5-9.1,2.3c-2.4-1.7-2.8-6.2-3.9-9.5
			c-0.4-1.2,0-2.7-0.2-4c-0.7-5.9,2-9.7,7.6-10.6c3.9-0.6,7.9,3.4,8.6,8.5c0.2,1.6,0.3,3.3,0.4,4.9
			C648.8,1415.4,649.1,1415.6,649.4,1415.7z"/>
		<path class="st0" d="M649.5,1369.9c-1.3,3.1-2.3,6.3-3.9,9.2c-1.9,3.5-5.5,2.7-8.2,1.8c-1.5-0.5-2.9-3-3.2-4.8
			c-0.8-4.6-1.5-9.4-1.2-14c0.3-5,5.5-6.8,9.5-3.8c3.8,2.8,8.1,5.2,5.6,11.5C648.5,1369.8,649,1369.8,649.5,1369.9z"/>
		<path class="st0" d="M689.7,1327.4c-0.1-7,2.4-10.4,7.4-10.6c3.3-0.2,5.9,0.6,6.8,4.4c0.7,3.2,1.8,6.3,2.4,9.5
			c1.1,5.3-1.6,9.3-6.6,10.3c-4.7,0.9-7.9-1.8-8.8-7.5C690.5,1331.2,690,1328.9,689.7,1327.4z"/>
		<path class="st0" d="M756.4,1364.9c-0.3,2.9-0.4,5.9-1,8.8c-0.8,4.3-9,7.3-12.4,4.3c-4-3.5-3.4-8.3-3.1-12.9
			c0.2-4,1.6-6.8,5.5-8.5C749,1355,757.8,1359.7,756.4,1364.9z"/>
		<path class="st0" d="M704.1,1414c0.4,4.6,0,8.2-5.3,9.3c-5.9,1.2-8.3,0.2-9.9-5.6c-0.9-3.1-1.9-6.6-1.1-9.5
			c1.8-6.2,5.5-7.9,11.8-6.2c5,1.4,4.3,6,4.8,9.8C704.6,1412.7,704.2,1413.5,704.1,1414z"/>
		<path class="st0" d="M730.8,1369.4c1.3,5.4-2.7,8.6-5.7,12c-1.8,2.1-7.9,0.3-8.8-2.8c-1.2-4.2-2.2-8.8-2-13.1
			c0.2-4.5,4.9-7.7,9.1-7.3C726.4,1358.5,730.8,1365,730.8,1369.4z"/>
		<path class="st0" d="M669.2,1317.1c4.6,0.2,8.8,5.3,9.4,12.1c0.4,3.9-3.4,9-7.7,9.7c-1.6,0.3-3.6-0.5-5.2-1.2
			c-3.4-1.4-6.7-10.8-5.5-15.5C661.3,1317.7,664.6,1316.8,669.2,1317.1z"/>
		<path class="st0" d="M631.6,1324.7c-0.2-4.1,1.9-6.4,5.6-7.2c3.5-0.8,6.7-0.6,8,3.6c1,3.1,2.7,6,3.1,9.2c0.8,5.9-3.8,9.2-8.7,9.9
			c-1.7,0.3-4.8-1.8-5.5-3.5C632.7,1333,632.4,1328.8,631.6,1324.7z"/>
		<path class="st0" d="M703.9,1370.2c1.9,5-2.5,7.1-6.3,8.9c-1.7,0.8-4.8-0.1-6.6-1.2c-3.8-2.4-5.1-11.5-2.8-15.9
			c1.9-3.6,6.4-4.8,11.2-3C703.1,1360.3,703.8,1361.9,703.9,1370.2z"/>
		<path class="st0" d="M721.5,1425.4c-2.9-1.7-6-2.3-6.6-4c-1.7-4.6-3.9-10-0.1-14.1c2-2.1,6.3-3.4,9.3-2.9c6.3,1,7.5,10.9,4.1,15.8
			C726.8,1422.3,724,1423.5,721.5,1425.4z"/>
	</g>
</g>
<path class="st2" d="M1197.9,926.1c0-4,0-8,0-12c0.7,0,1.3,0,2,0c9-1.3,18-2.7,27-4c0-0.3,0-0.7,0-1c-4.3-5.3-8.7-10.7-13-16
	c0.3-2.7,0.7-5.3,1-8c3.7-1.9,4.9-2.8,11-3c5.7,7,11.3,14,17,21c0.7-0.3,1.3-0.7,2-1c3.4-9.8,11.5-18.9,18-26c3,0.7,6,1.3,9,2
	c0.3,2.3,0.7,4.7,1,7c-4.7,7.3-9.3,14.7-14,22c0.3,0.7,0.7,1.3,1,2c9,0.7,18,1.3,27,2c1,2.3,2,4.7,3,7c-2,2.3-4,4.7-6,7
	c-9.4-0.5-18.8-2.3-24,2c4.7,6.3,21,23.4,16,31c-1.7,1.7-3.3,3.3-5,5c-3-0.7-6-1.3-9-2c-2.9-10.8-12.6-17-18-26
	c-0.7,0.3-1.3,0.7-2,1c-2.7,9.9-9.9,18.1-16,25c-5.5,0-5.8,0.3-8-3c-4.7-11.9,9.2-19.6,11-30c-0.3-0.7-0.7-1.3-1-2
	C1217.9,926.1,1207.9,926.1,1197.9,926.1z">
	<animateTransform attributeName="transform"
                          attributeType="XML"
                          type="rotate"
                          from="0 1247 920"
                          to="360 1247 920"
                          dur="5s"
                          repeatCount="indefinite"/>
</path>

<path class="st2" d="M1122,1211c0-4,0-8,0-12c0.7,0,1.3,0,2,0c9-1.3,18-2.7,27-4c0-0.3,0-0.7,0-1c-4.3-5.3-8.7-10.7-13-16
	c0.3-2.7,0.7-5.3,1-8c3.7-1.9,4.9-2.8,11-3c5.7,7,11.3,14,17,21c0.7-0.3,1.3-0.7,2-1c3.4-9.8,11.5-18.9,18-26c3,0.7,6,1.3,9,2
	c0.3,2.3,0.7,4.7,1,7c-4.7,7.3-9.3,14.7-14,22c0.3,0.7,0.7,1.3,1,2c9,0.7,18,1.3,27,2c1,2.3,2,4.7,3,7c-2,2.3-4,4.7-6,7
	c-9.4-0.5-18.8-2.3-24,2c4.7,6.3,21,23.4,16,31c-1.7,1.7-3.3,3.3-5,5c-3-0.7-6-1.3-9-2c-2.9-10.8-12.6-17-18-26
	c-0.7,0.3-1.3,0.7-2,1c-2.7,9.9-9.9,18.1-16,25c-5.5,0-5.8,0.3-8-3c-4.7-11.9,9.2-19.6,11-30c-0.3-0.7-0.7-1.3-1-2
	C1142,1211,1132,1211,1122,1211z">
	<animateTransform attributeName="transform"
                          attributeType="XML"
                          type="rotate"
                          from="0 1170 1206"
                          to="360 1170 1206"
                          dur="5s"
                          repeatCount="indefinite"/>
</path>

<path class="st2" d="M49,711c0-4,0-8,0-12c0.7,0,1.3,0,2,0c9-1.3,18-2.7,27-4c0-0.3,0-0.7,0-1c-4.3-5.3-8.7-10.7-13-16
	c0.3-2.7,0.7-5.3,1-8c3.7-1.9,4.9-2.8,11-3c5.7,7,11.3,14,17,21c0.7-0.3,1.3-0.7,2-1c3.4-9.8,11.5-18.9,18-26c3,0.7,6,1.3,9,2
	c0.3,2.3,0.7,4.7,1,7c-4.7,7.3-9.3,14.7-14,22c0.3,0.7,0.7,1.3,1,2c9,0.7,18,1.3,27,2c1,2.3,2,4.7,3,7c-2,2.3-4,4.7-6,7
	c-9.4-0.5-18.8-2.3-24,2c4.7,6.3,21,23.4,16,31c-1.7,1.7-3.3,3.3-5,5c-3-0.7-6-1.3-9-2c-2.9-10.8-12.6-17-18-26
	c-0.7,0.3-1.3,0.7-2,1c-2.7,9.9-9.9,18.1-16,25c-5.5,0-5.8,0.3-8-3c-4.7-11.9,9.2-19.6,11-30c-0.3-0.7-0.7-1.3-1-2
	C69,711,59,711,49,711z">
	<animateTransform attributeName="transform"
                          attributeType="XML"
                          type="rotate"
                          from="0 96 706"
                          to="360 96 706"
                          dur="5s"
                          repeatCount="indefinite"/>
</path>

<path class="st2" d="M302,410c0-4,0-8,0-12c0.7,0,1.3,0,2,0c9-1.3,18-2.7,27-4c0-0.3,0-0.7,0-1c-4.3-5.3-8.7-10.7-13-16
	c0.3-2.7,0.7-5.3,1-8c3.7-1.9,4.9-2.8,11-3c5.7,7,11.3,14,17,21c0.7-0.3,1.3-0.7,2-1c3.4-9.8,11.5-18.9,18-26c3,0.7,6,1.3,9,2
	c0.3,2.3,0.7,4.7,1,7c-4.7,7.3-9.3,14.7-14,22c0.3,0.7,0.7,1.3,1,2c9,0.7,18,1.3,27,2c1,2.3,2,4.7,3,7c-2,2.3-4,4.7-6,7
	c-9.4-0.5-18.8-2.3-24,2c4.7,6.3,21,23.4,16,31c-1.7,1.7-3.3,3.3-5,5c-3-0.7-6-1.3-9-2c-2.9-10.8-12.6-17-18-26
	c-0.7,0.3-1.3,0.7-2,1c-2.7,9.9-9.9,18.1-16,25c-5.5,0-5.8,0.3-8-3c-4.7-11.9,9.2-19.6,11-30c-0.3-0.7-0.7-1.3-1-2
	C322,410,312,410,302,410z">
	<animateTransform attributeName="transform"
													attributeType="XML"
													type="rotate"
													from="0 350 405"
													to="360 350 405"
													dur="5s"
													repeatCount="indefinite"/>
</path>

<path class="st2" d="M338,1407c0-4,0-8,0-12c0.7,0,1.3,0,2,0c9-1.3,18-2.7,27-4c0-0.3,0-0.7,0-1c-4.3-5.3-8.7-10.7-13-16
	c0.3-2.7,0.7-5.3,1-8c3.7-1.9,4.9-2.8,11-3c5.7,7,11.3,14,17,21c0.7-0.3,1.3-0.7,2-1c3.4-9.8,11.5-18.9,18-26c3,0.7,6,1.3,9,2
	c0.3,2.3,0.7,4.7,1,7c-4.7,7.3-9.3,14.7-14,22c0.3,0.7,0.7,1.3,1,2c9,0.7,18,1.3,27,2c1,2.3,2,4.7,3,7c-2,2.3-4,4.7-6,7
	c-9.4-0.5-18.8-2.3-24,2c4.7,6.3,21,23.4,16,31c-1.7,1.7-3.3,3.3-5,5c-3-0.7-6-1.3-9-2c-2.9-10.8-12.6-17-18-26
	c-0.7,0.3-1.3,0.7-2,1c-2.7,9.9-9.9,18.1-16,25c-5.5,0-5.8,0.3-8-3c-4.7-11.9,9.2-19.6,11-30c-0.3-0.7-0.7-1.3-1-2
	C358,1407,348,1407,338,1407z">
	<animateTransform attributeName="transform"
													attributeType="XML"
													type="rotate"
													from="0 386 1402"
													to="360 386 1402"
													dur="5s"
													repeatCount="indefinite"/>
</path>

<path class="st2" d="M1264.8,471.3c2.3,0.3,4.7,0.7,7,1c2,4.7,4,9.3,6,14c0.7-0.3,1.3-0.7,2-1c1.5-5.7,4.9-12.2,12-10
	c4.9,1.5,4.9,3.2,8,6c-3,6-6,12-9,18c9.1-3.3,15.9-4.5,24,0c1.3,6.6,0,7.8-3,12c-11,1.3-22,2.7-33,4c-8,11.3-16,22.7-24,34
	c0.7,1,1.3,2,2,3c15.3-0.3,30.7-0.7,46-1c4.7-8.1,13.6-16.4,22-21c3.1,1.5,3.2,1.1,5,4c1.9,7-6.3,14.4-7,20c7-1,15.6-1.4,19,4
	c2,2.4,1.2,2.3,2,5c-1.3,2-2.7,4-4,6c-6,0.3-12,0.7-18,1c3.7,7.6,9.1,10.9,10,21c-2.8,4.1-3.8,5-11,5c-9.6-7.1-13.6-19.7-22-28
	c-17.3,0-34.7,0-52,0c0.3,0.7,0.7,1.3,1,2c9.3,15.3,18.7,30.7,28,46c11.6,0.7,23.1,4.3,31,9c0.9,6.1,0.5,7.7-2,12c-5,0-10,0-15,0
	c2.8,5.9,5.5,7.3,6,16c-1,0.7-2,1.3-3,2c-2.4,2-6.5,2.7-10,1c-4.3-2.4-7.3-8.1-10-12c-0.7,0.3-1.3,0.7-2,1c-0.4,5.9-1.8,7.4-4,11
	c-3.7,0-7.3,0-11,0c-0.3-1-0.7-2-1-3c-1.7-5.8,2-16.6,3-24c2.1-15.2-15.1-38.4-23-46c-0.7,0-1.3,0-2,0c-8.7,12.3-17.3,24.7-26,37
	c-2.2,6.1,4.5,24.4,3,33c-1,0.3-2,0.7-3,1c-5.4,1.6-8.2,0.2-12-2c-0.3-3.7-0.7-7.3-1-11c-4.3,5.3-8.7,10.7-13,16
	c-4.9,0.1-7.6-0.1-10-2c-2.1-2-1-0.4-2-4c5.3-7.3,10.7-14.7,16-22c-0.3-0.3-0.7-0.7-1-1c-8.9,1.3-16.2,1.6-24,0
	c-0.3-2.7-0.7-5.3-1-8c9.1-6.3,26.5-3.6,37-10c10.4-6.3,19.1-28.2,25-40c-0.3-0.3-0.7-0.7-1-1c-11,0-22,0-33,0
	c-6.2,8.6-16.9,26.9-29,29c-2-1.3-4-2.7-6-4c0.3-2,0.7-4,1-6c4-5.3,8-10.7,12-16c-0.3-0.3-0.7-0.7-1-1c-9.2,0.3-15.5-1-21-4
	c0-1.7,0-3.3,0-5c0.7-1,1.3-2,2-3c7-1,14-2,21-3c0-0.3,0-0.7,0-1c-2-2-4-4-6-6c-4.7-1.6-6.9-2.4-8-8c1.7-1.7,3.3-3.3,5-5
	c2.7-0.7,5.3-1.3,8-2c6,6.6,15,14.6,22,20c11.9-0.1,21.2,1.4,32-2c0-0.3,0-0.7,0-1c-6.3-10.7-12.7-21.3-19-32
	c-12.3-0.5-28.6-3.9-33-13c0.7-1.7,1.3-3.3,2-5c5.3-1.1,17.2-1.4,20-3c-5.4-8.3-10.6-10.2-3-20c0.3,0,0.7,0,1,0c2.3,0,4.7,0,7,0
	c4.3,5.7,8.7,11.3,13,17c0.7-0.7,1.3-1.3,2-2c0.7-3.7,1.3-7.3,2-11c5.8-2,8.1-4.1,15-3c3.9,13.7-12.5,27.2-8,36
	c6,10.3,12,20.7,18,31c1-0.7,2-1.3,3-2c9-12.7,18-25.3,27-38c-4.1-11.6-10.8-23-7-34C1260.8,471.9,1262.8,471.6,1264.8,471.3z">
	<animateTransform attributeName="transform"
													attributeType="XML"
													type="rotate"
													from="0 1236 561"
													to="360 1236 561"
													dur="8s"
													repeatCount="indefinite"/>
</path>

<path class="st2" d="M190,1091c2.3,0.3,4.7,0.7,7,1c2,4.7,4,9.3,6,14c0.7-0.3,1.3-0.7,2-1c1.5-5.7,4.9-12.2,12-10
	c4.9,1.5,4.9,3.2,8,6c-3,6-6,12-9,18c9.1-3.3,15.9-4.5,24,0c1.3,6.6,0,7.8-3,12c-11,1.3-22,2.7-33,4c-8,11.3-16,22.7-24,34
	c0.7,1,1.3,2,2,3c15.3-0.3,30.7-0.7,46-1c4.7-8.1,13.6-16.4,22-21c3.1,1.5,3.2,1.1,5,4c1.9,7-6.3,14.4-7,20c7-1,15.6-1.4,19,4
	c2,2.4,1.2,2.3,2,5c-1.3,2-2.7,4-4,6c-6,0.3-12,0.7-18,1c3.7,7.6,9.1,10.9,10,21c-2.8,4.1-3.8,5-11,5c-9.6-7.1-13.6-19.7-22-28
	c-17.3,0-34.7,0-52,0c0.3,0.7,0.7,1.3,1,2c9.3,15.3,18.7,30.7,28,46c11.6,0.7,23.1,4.3,31,9c0.9,6.1,0.5,7.7-2,12c-5,0-10,0-15,0
	c2.8,5.9,5.5,7.3,6,16c-1,0.7-2,1.3-3,2c-2.4,2-6.5,2.7-10,1c-4.3-2.4-7.3-8.1-10-12c-0.7,0.3-1.3,0.7-2,1c-0.4,5.9-1.8,7.4-4,11
	c-3.7,0-7.3,0-11,0c-0.3-1-0.7-2-1-3c-1.7-5.8,2-16.6,3-24c2.1-15.2-15.1-38.4-23-46c-0.7,0-1.3,0-2,0c-8.7,12.3-17.3,24.7-26,37
	c-2.2,6.1,4.5,24.4,3,33c-1,0.3-2,0.7-3,1c-5.4,1.6-8.2,0.2-12-2c-0.3-3.7-0.7-7.3-1-11c-4.3,5.3-8.7,10.7-13,16
	c-4.9,0.1-7.6-0.1-10-2c-2.1-2-1-0.4-2-4c5.3-7.3,10.7-14.7,16-22c-0.3-0.3-0.7-0.7-1-1c-8.9,1.3-16.2,1.6-24,0
	c-0.3-2.7-0.7-5.3-1-8c9.1-6.3,26.5-3.6,37-10c10.4-6.3,19.1-28.2,25-40c-0.3-0.3-0.7-0.7-1-1c-11,0-22,0-33,0
	c-6.2,8.6-16.9,26.9-29,29c-2-1.3-4-2.7-6-4c0.3-2,0.7-4,1-6c4-5.3,8-10.7,12-16c-0.3-0.3-0.7-0.7-1-1c-9.2,0.3-15.5-1-21-4
	c0-1.7,0-3.3,0-5c0.7-1,1.3-2,2-3c7-1,14-2,21-3c0-0.3,0-0.7,0-1c-2-2-4-4-6-6c-4.7-1.6-6.9-2.4-8-8c1.7-1.7,3.3-3.3,5-5
	c2.7-0.7,5.3-1.3,8-2c6,6.6,15,14.6,22,20c11.9-0.1,21.2,1.4,32-2c0-0.3,0-0.7,0-1c-6.3-10.7-12.7-21.3-19-32
	c-12.3-0.5-28.6-3.9-33-13c0.7-1.7,1.3-3.3,2-5c5.3-1.1,17.2-1.4,20-3c-5.4-8.3-10.6-10.2-3-20c0.3,0,0.7,0,1,0c2.3,0,4.7,0,7,0
	c4.3,5.7,8.7,11.3,13,17c0.7-0.7,1.3-1.3,2-2c0.7-3.7,1.3-7.3,2-11c5.8-2,8.1-4.1,15-3c3.9,13.7-12.5,27.2-8,36
	c6,10.3,12,20.7,18,31c1-0.7,2-1.3,3-2c9-12.7,18-25.3,27-38c-4.1-11.6-10.8-23-7-34C186,1091.7,188,1091.3,190,1091z">
	<animateTransform attributeName="transform"
													attributeType="XML"
													type="rotate"
													from="0 163 1182"
													to="360 163 1182"
													dur="8s"
													repeatCount="indefinite"/>
</path>

<path class="st0" d="M750.8,1146.5c-6,0-12-1.4-18.2-3.1c-2.8-0.8-4.4-3.7-3.6-6.4c0,0,0,0,0,0c0.8-2.8,3.6-3.9,6.5-3.6
	c13.8,1.3,26.5-0.9,39.4-4.4c2.8-0.7,6.5,0.3,7.8,2.9s1,6.3-1.5,7.6C771.7,1144,761.3,1146.4,750.8,1146.5z"/>
</svg>
